<svg width="50" height="50" viewBox="0 0 50 50" fill="none" xmlns="http://www.w3.org/2000/svg"><path d="M41.6663 41.6671C41.6663 42.2197 41.4468 42.7496 41.0561 43.1403C40.6654 43.531 40.1355 43.7505 39.583 43.7505H10.4163C9.86381 43.7505 9.3339 43.531 8.9432 43.1403C8.5525 42.7496 8.33301 42.2197 8.33301 41.6671V22.9172H2.08301L23.5976 3.35882C23.9812 3.00981 24.4811 2.81641 24.9997 2.81641C25.5183 2.81641 26.0182 3.00981 26.4018 3.35882L47.9163 22.9172H41.6663V41.6671ZM24.9997 35.4171L31.9976 28.4192C32.4329 27.984 32.7781 27.4672 33.0137 26.8985C33.2493 26.3298 33.3705 25.7202 33.3705 25.1047C33.3705 24.4891 33.2493 23.8795 33.0137 23.3108C32.7781 22.7421 32.4329 22.2253 31.9976 21.7901C31.5623 21.3548 31.0456 21.0095 30.4768 20.7739C29.9081 20.5384 29.2986 20.4171 28.683 20.4171C28.0674 20.4171 27.4579 20.5384 26.8892 20.7739C26.3204 21.0095 25.8037 21.3548 25.3684 21.7901L24.9997 22.1588L24.6309 21.7901C24.1956 21.3548 23.6789 21.0095 23.1102 20.7739C22.5415 20.5384 21.9319 20.4171 21.3163 20.4171C20.7008 20.4171 20.0912 20.5384 19.5225 20.7739C18.9538 21.0095 18.437 21.3548 18.0018 21.7901C17.5665 22.2253 17.2212 22.7421 16.9856 23.3108C16.7501 23.8795 16.6288 24.4891 16.6288 25.1047C16.6288 25.7202 16.7501 26.3298 16.9856 26.8985C17.2212 27.4672 17.5665 27.984 18.0018 28.4192L24.9997 35.4171Z" fill="#121418"/></svg>