<svg width="50" height="50" viewBox="0 0 50 50" fill="none" xmlns="http://www.w3.org/2000/svg"><path d="M24.9997 14.5838C29.4199 14.5838 33.6592 16.3397 36.7848 19.4653C39.9104 22.5909 41.6663 26.8302 41.6663 31.2505C41.6663 35.6707 39.9104 39.91 36.7848 43.0356C33.6592 46.1612 29.4199 47.9171 24.9997 47.9171C20.5794 47.9171 16.3402 46.1612 13.2146 43.0356C10.089 39.91 8.33301 35.6707 8.33301 31.2505C8.33301 26.8302 10.089 22.5909 13.2146 19.4653C16.3402 16.3397 20.5794 14.5838 24.9997 14.5838V14.5838ZM24.9997 21.8755L22.2434 27.4588L16.083 28.3546L20.5413 32.6984L19.4893 38.8359L24.9997 35.938L30.5101 38.8338L29.458 32.6984L33.9163 28.3525L27.7559 27.4567L24.9997 21.8755ZM27.083 4.16504L37.4997 4.16712V10.4171L34.6601 12.788C32.3037 11.5517 29.7311 10.7814 27.083 10.5192V4.16712V4.16504ZM22.9163 4.16504V10.5192C20.2691 10.781 17.6972 11.5506 15.3413 12.7859L12.4997 10.4171V4.16712L22.9163 4.16504V4.16504Z" fill="#121418"/></svg>