<svg width="50" height="50" viewBox="0 0 50 50" fill="none" xmlns="http://www.w3.org/2000/svg"><path d="M18.7503 27.083V33.333H31.2503V27.083H45.8337V41.6663C45.8337 42.2189 45.6142 42.7488 45.2235 43.1395C44.8328 43.5302 44.3029 43.7497 43.7503 43.7497H6.25033C5.69779 43.7497 5.16789 43.5302 4.77719 43.1395C4.38649 42.7488 4.16699 42.2189 4.16699 41.6663V27.083H18.7503ZM22.917 22.9163H27.0837V29.1663H22.917V22.9163ZM14.5837 10.4163V4.16634C14.5837 3.61381 14.8032 3.0839 15.1939 2.6932C15.5846 2.3025 16.1145 2.08301 16.667 2.08301H33.3337C33.8862 2.08301 34.4161 2.3025 34.8068 2.6932C35.1975 3.0839 35.417 3.61381 35.417 4.16634V10.4163H43.7503C44.3029 10.4163 44.8328 10.6358 45.2235 11.0265C45.6142 11.4172 45.8337 11.9471 45.8337 12.4997V22.9163H31.2503V18.7497H18.7503V22.9163H4.16699V12.4997C4.16699 11.9471 4.38649 11.4172 4.77719 11.0265C5.16789 10.6358 5.69779 10.4163 6.25033 10.4163H14.5837ZM18.7503 6.24967V10.4163H31.2503V6.24967H18.7503Z" fill="#121418"/></svg>