<svg width="24" height="24" viewBox="0 0 24 24" fill="none" xmlns="http://www.w3.org/2000/svg"><path d="M16.609 13.3856C17.4514 12.6997 18.1324 11.8244 18.6003 10.8259C19.0682 9.82728 19.3109 8.73158 19.3101 7.62157H21.3333C21.3344 9.09971 20.9995 10.5574 20.356 11.8766C19.7124 13.1958 18.7781 14.3396 17.6287 15.2155L20.1861 19.8037C20.4544 20.2851 20.5271 20.8572 20.3883 21.3941C20.2494 21.9311 19.9103 22.3889 19.4456 22.6668L15.8776 16.2656C14.727 16.787 13.4845 17.0554 12.2286 17.0537C10.9727 17.0554 9.7302 16.787 8.57962 16.2656L5.01158 22.6668C4.54689 22.3889 4.20781 21.9311 4.06894 21.3941C3.93007 20.8572 4.00277 20.2851 4.27106 19.8037L9.39298 10.6126C8.88207 10.0922 8.51362 9.44065 8.32527 8.72449C8.13691 8.00833 8.13538 7.25322 8.32085 6.53625C8.50632 5.81928 8.87213 5.16615 9.38094 4.64354C9.88975 4.12093 10.5233 3.74756 11.217 3.56157V1.3335H13.2402V3.56157C13.9339 3.74756 14.5675 4.12093 15.0763 4.64354C15.5851 5.16615 15.9509 5.81928 16.1363 6.53625C16.3218 7.25322 16.3203 8.00833 16.1319 8.72449C15.9436 9.44065 15.5751 10.0922 15.0642 10.6126L16.609 13.3856ZM14.8589 14.4357L13.3131 11.6617C12.6042 11.8655 11.8551 11.8655 11.1461 11.6617L9.60037 14.4357C10.4137 14.7722 11.2999 14.9577 12.2296 14.9577C13.1583 14.9577 14.0455 14.7722 14.8589 14.4357ZM12.2286 8.66958C12.4969 8.66958 12.7542 8.55917 12.9439 8.36262C13.1337 8.16608 13.2402 7.89952 13.2402 7.62157C13.2402 7.34362 13.1337 7.07705 12.9439 6.88051C12.7542 6.68397 12.4969 6.57356 12.2286 6.57356C11.9603 6.57356 11.703 6.68397 11.5133 6.88051C11.3235 7.07705 11.217 7.34362 11.217 7.62157C11.217 7.89952 11.3235 8.16608 11.5133 8.36262C11.703 8.55917 11.9603 8.66958 12.2286 8.66958Z" fill="#fff"/></svg>