<svg width="64" height="64" viewBox="0 0 64 64" fill="none" xmlns="http://www.w3.org/2000/svg"><path d="M57 2H7C5.67392 2 4.40215 2.52678 3.46447 3.46447C2.52678 4.40215 2 5.67392 2 7V57C2 58.3261 2.52678 59.5979 3.46447 60.5355C4.40215 61.4732 5.67392 62 7 62H57C58.3261 62 59.5979 61.4732 60.5355 60.5355C61.4732 59.5979 62 58.3261 62 57V7C62 5.67392 61.4732 4.40215 60.5355 3.46447C59.5979 2.52678 58.3261 2 57 2ZM16.13 7.71C16.2928 7.50169 16.5012 7.33337 16.739 7.21793C16.9769 7.10249 17.238 7.04297 17.5024 7.04394C17.7669 7.0449 18.0275 7.10632 18.2646 7.2235C18.5016 7.34068 18.7087 7.5105 18.87 7.72C21.22 11.08 25.17 17.19 25.17 20.33C25.17 22.3642 24.3619 24.3151 22.9235 25.7535C21.4851 27.1919 19.5342 28 17.5 28C15.4658 28 13.5149 27.1919 12.0765 25.7535C10.6381 24.3151 9.83 22.3642 9.83 20.33C9.83 17.19 13.78 11.08 16.13 7.71ZM31 60H7C6.20508 59.9976 5.4434 59.6808 4.8813 59.1187C4.31921 58.5566 4.00237 57.7949 4 57V33H31V60ZM51.17 55.53H41.83C40.0837 55.5882 38.3853 54.953 37.1057 53.7633C35.826 52.5736 35.069 50.9259 35 49.18C35.0337 47.8013 35.5097 46.4699 36.3577 45.3823C37.2058 44.2948 38.3811 43.5087 39.71 43.14C40.03 39.87 43.22 37.42 46.5 37.47C48.128 37.4267 49.7159 37.9787 50.9659 39.0226C52.2159 40.0664 53.0423 41.5304 53.29 43.14C54.6189 43.5087 55.7942 44.2948 56.6423 45.3823C57.4903 46.4699 57.9663 47.8013 58 49.18C57.931 50.9259 57.174 52.5736 55.8943 53.7633C54.6147 54.953 52.9163 55.5882 51.17 55.53ZM60 31H33V4H57C57.7949 4.00237 58.5566 4.31921 59.1187 4.8813C59.6808 5.4434 59.9976 6.20508 60 7V31Z" fill="#00BE4C"/><path d="M52.14 44.9104C51.9053 44.8675 51.6937 44.7422 51.5433 44.557C51.3929 44.3717 51.3137 44.1389 51.32 43.9004C51.43 41.3804 48.97 39.4104 46.5 39.4704C44.03 39.4204 41.57 41.3904 41.68 43.9004C41.6863 44.1389 41.6071 44.3717 41.4567 44.557C41.3063 44.7422 41.0947 44.8675 40.86 44.9104C39.8201 45.0614 38.8655 45.5706 38.1609 46.3501C37.4562 47.1296 37.0457 48.1306 37 49.1804C37.0685 50.396 37.6146 51.5352 38.5192 52.35C39.4239 53.1648 40.6139 53.589 41.83 53.5304H51.17C52.3861 53.589 53.5761 53.1648 54.4808 52.35C55.3854 51.5352 55.9315 50.396 56 49.1804C55.9543 48.1306 55.5438 47.1296 54.8391 46.3501C54.1345 45.5706 53.1799 45.0614 52.14 44.9104ZM8 46.5004H17C17.6649 46.5005 18.3194 46.3349 18.9042 46.0186C19.489 45.7022 19.9857 45.245 20.3494 44.6884C20.7131 44.1318 20.9324 43.4933 20.9873 42.8307C21.0422 42.1681 20.931 41.5022 20.6639 40.8933C20.3968 40.2845 19.9821 39.7518 19.4573 39.3434C18.9325 38.9351 18.3143 38.6641 17.6584 38.5548C17.0025 38.4455 16.3298 38.5014 15.701 38.7175C15.0722 38.9336 14.5071 39.303 14.057 39.7924C13.8774 39.9876 13.7828 40.2461 13.7939 40.5111C13.8049 40.7761 13.9208 41.0258 14.116 41.2054C14.3112 41.3849 14.5697 41.4796 14.8347 41.4685C15.0997 41.4575 15.3494 41.3416 15.529 41.1464C15.7153 40.9417 15.9425 40.7784 16.1959 40.6671C16.4493 40.5559 16.7232 40.499 17 40.5004C17.5304 40.5004 18.0391 40.7111 18.4142 41.0862C18.7893 41.4612 19 41.97 19 42.5004C19 43.0308 18.7893 43.5395 18.4142 43.9146C18.0391 44.2897 17.5304 44.5004 17 44.5004H8C7.73478 44.5004 7.48043 44.6057 7.29289 44.7933C7.10536 44.9808 7 45.2352 7 45.5004C7 45.7656 7.10536 46.02 7.29289 46.2075C7.48043 46.395 7.73478 46.5004 8 46.5004ZM23.529 48.1464C23.7153 47.9417 23.9425 47.7784 24.1959 47.6671C24.4493 47.5559 24.7232 47.499 25 47.5004C25.5304 47.5004 26.0391 47.7111 26.4142 48.0862C26.7893 48.4612 27 48.97 27 49.5004C27 50.0308 26.7893 50.5395 26.4142 50.9146C26.0391 51.2897 25.5304 51.5004 25 51.5004H12C11.7348 51.5004 11.4804 51.6057 11.2929 51.7933C11.1054 51.9808 11 52.2352 11 52.5004C11 52.7656 11.1054 53.02 11.2929 53.2075C11.4804 53.395 11.7348 53.5004 12 53.5004H25C25.6649 53.5005 26.3194 53.3349 26.9042 53.0186C27.489 52.7022 27.9857 52.245 28.3494 51.6884C28.7131 51.1318 28.9324 50.4933 28.9873 49.8307C29.0422 49.1681 28.931 48.5022 28.6639 47.8933C28.3968 47.2845 27.9821 46.7518 27.4573 46.3434C26.9325 45.9351 26.3143 45.6641 25.6584 45.5548C25.0025 45.4455 24.3298 45.5014 23.701 45.7175C23.0722 45.9336 22.5071 46.303 22.057 46.7924C21.8774 46.9876 21.7828 47.2461 21.7939 47.5111C21.8049 47.7761 21.9208 48.0258 22.116 48.2054C22.3112 48.3849 22.5697 48.4796 22.8347 48.4685C23.0997 48.4575 23.3494 48.3416 23.529 48.1464ZM57.11 13.4504L54.6 11.6304L53.63 8.70039C53.5669 8.50045 53.4418 8.32579 53.2728 8.20173C53.1038 8.07767 52.8997 8.01065 52.69 8.01039L49.58 7.99039L47.06 6.19039C46.8912 6.06852 46.6882 6.00293 46.48 6.00293C46.2718 6.00293 46.0688 6.06852 45.9 6.19039L43.38 7.99039L40.27 8.01039C40.0595 8.0119 39.8547 8.07924 39.6843 8.20297C39.5139 8.32671 39.3866 8.50063 39.32 8.70039L38.35 11.6304L35.85 13.4504C35.6796 13.5731 35.5521 13.7464 35.4857 13.9456C35.4193 14.1449 35.4173 14.36 35.48 14.5604L36.43 17.5004L35.48 20.4404C35.4173 20.6408 35.4193 20.8559 35.4857 21.0551C35.5521 21.2544 35.6796 21.4277 35.85 21.5504L38.35 23.3704L39.32 26.3004C39.3866 26.5001 39.5139 26.6741 39.6843 26.7978C39.8547 26.9215 40.0595 26.9889 40.27 26.9904L43.38 27.0104L45.9 28.8104C46.0688 28.9323 46.2718 28.9978 46.48 28.9978C46.6882 28.9978 46.8912 28.9323 47.06 28.8104L49.58 27.0104L52.69 26.9904C52.8997 26.9901 53.1038 26.9231 53.2728 26.799C53.4418 26.675 53.5669 26.5003 53.63 26.3004L54.6 23.3704L57.11 21.5504C57.2814 21.4287 57.4091 21.255 57.4739 21.055C57.5388 20.8551 57.5374 20.6395 57.47 20.4404L56.52 17.5004L57.47 14.5604C57.5374 14.3613 57.5388 14.1457 57.4739 13.9457C57.4091 13.7458 57.2814 13.5721 57.11 13.4504ZM46.5 24.0004C45.2144 24.0004 43.9577 23.6192 42.8888 22.9049C41.8199 22.1907 40.9868 21.1755 40.4948 19.9878C40.0028 18.8001 39.8741 17.4932 40.1249 16.2323C40.3757 14.9714 40.9948 13.8132 41.9038 12.9042C42.8128 11.9952 43.971 11.3761 45.2319 11.1253C46.4928 10.8745 47.7997 11.0032 48.9874 11.4952C50.1752 11.9871 51.1903 12.8203 51.9046 13.8892C52.6188 14.9581 53 16.2148 53 17.5004C52.9966 19.2232 52.3106 20.8745 51.0924 22.0928C49.8742 23.311 48.2229 23.997 46.5 24.0004Z" fill="#00BE4C"/><path d="M46.5 22C48.9853 22 51 19.9853 51 17.5C51 15.0147 48.9853 13 46.5 13C44.0147 13 42 15.0147 42 17.5C42 19.9853 44.0147 22 46.5 22Z" fill="#00BE4C"/><path d="M17.5 26C19.0031 25.9979 20.444 25.3998 21.5069 24.337C22.5698 23.2741 23.1678 21.8331 23.17 20.33C23.17 18.2 20.29 13.28 17.5 9.25C14.71 13.29 11.83 18.2 11.83 20.33C11.8321 21.8331 12.4301 23.2741 13.493 24.337C14.5559 25.3998 15.9968 25.9979 17.5 26Z" fill="#00BE4C"/><path d="M8 53.5C8.55228 53.5 9 53.0523 9 52.5C9 51.9477 8.55228 51.5 8 51.5C7.44772 51.5 7 51.9477 7 52.5C7 53.0523 7.44772 53.5 8 53.5Z" fill="#00BE4C"/></svg>