<svg width="64" height="64" viewBox="0 0 64 64" fill="none" xmlns="http://www.w3.org/2000/svg"><path d="M58.0743 16.197C58.0751 15.7655 57.9875 15.3384 57.8169 14.9421C57.6464 14.5457 57.3965 14.1885 57.0826 13.8924C56.7687 13.5963 56.3976 13.3676 55.992 13.2204C55.5863 13.0732 55.1549 13.0106 54.7242 13.0365H54.1237C50.2088 13.0789 46.3549 12.065 42.9677 10.1017C39.5805 8.13833 36.7853 5.29809 34.8763 1.87996V1.69033C34.7566 1.5181 34.6189 1.35917 34.4654 1.21626C34.3236 1.06167 34.1645 0.923816 33.9913 0.805396L33.7701 0.615766H33.454L32.7587 0.394531H32.1582H31.5894C31.3709 0.428358 31.1582 0.49217 30.9573 0.584161H30.6412H30.4516C30.2794 0.703811 30.1204 0.84155 29.9775 0.995025C29.8145 1.14065 29.6758 1.31136 29.5666 1.5007C29.4958 1.55575 29.4321 1.61945 29.377 1.69033C27.4641 5.18646 24.6424 8.10097 21.21 10.1259C17.7776 12.1509 13.8619 13.2111 9.87676 13.1945H9.4659C9.03073 13.1371 8.58837 13.1709 8.167 13.2939C7.74563 13.4168 7.3545 13.6262 7.01852 13.9087C6.68253 14.1911 6.40907 14.5405 6.21556 14.9345C6.02204 15.3285 5.91271 15.7584 5.89454 16.197C5.89454 19.3575 5.89454 22.36 5.89454 25.6785V27.0059C5.49816 35.0261 7.76197 42.9526 12.3342 49.5537C16.9064 56.1549 23.531 61.0609 31.1785 63.5096C31.4447 63.5891 31.7229 63.6212 32.0002 63.6044C32.2627 63.6353 32.5279 63.6353 32.7903 63.6044C40.4393 61.1553 47.0734 56.2643 51.6749 49.6817C56.2764 43.0992 58.5911 35.1887 58.2639 27.1639C58.2639 23.2449 58.2639 19.6419 58.0743 16.197Z" fill="#00BE4C"/><path d="M32.0158 43.1234C30.3092 43.1234 28.8775 42.8485 27.7207 42.2985C26.564 41.7486 25.6822 41.028 25.0754 40.1367C24.4875 39.2455 24.1746 38.2973 24.1367 37.2923C24.1367 37.1216 24.1936 36.9794 24.3074 36.8656C24.4212 36.7519 24.5634 36.695 24.7341 36.695H27.9483C28.1758 36.695 28.356 36.7519 28.4887 36.8656C28.6404 36.9605 28.7542 37.0932 28.8301 37.2639C29.0197 37.7759 29.2662 38.193 29.5696 38.5154C29.892 38.8378 30.2618 39.0748 30.6789 39.2265C31.0961 39.3782 31.5418 39.4541 32.0158 39.4541C32.6226 39.4541 33.1821 39.3308 33.6941 39.0843C34.2061 38.8188 34.6138 38.4396 34.9172 37.9465C35.2206 37.4535 35.3723 36.8467 35.3723 36.1261C35.3723 35.5003 35.2301 34.9504 34.9456 34.4763C34.6612 34.0022 34.2629 33.6325 33.7509 33.367C33.2389 33.1015 32.6606 32.9687 32.0158 32.9687C31.5228 32.9687 31.1151 33.0256 30.7927 33.1394C30.4893 33.2532 30.2333 33.3954 30.0247 33.5661C29.8161 33.7178 29.6265 33.86 29.4558 33.9927C29.2852 34.1065 29.0955 34.1634 28.8869 34.1634H25.7296C25.5589 34.1634 25.4072 34.1065 25.2745 33.9927C25.1607 33.86 25.1038 33.7083 25.1038 33.5376L26.0994 23.7243C26.1373 23.4588 26.2321 23.2597 26.3838 23.127C26.5545 22.9753 26.7536 22.8994 26.9812 22.8994H38.0176C38.2262 22.8994 38.3969 22.9658 38.5296 23.0985C38.6623 23.2313 38.7287 23.4019 38.7287 23.6105V25.8861C38.7287 26.0757 38.6623 26.2369 38.5296 26.3696C38.3969 26.5024 38.2262 26.5687 38.0176 26.5687H29.7972L29.3705 30.7501C29.7498 30.5036 30.2143 30.2855 30.7643 30.0959C31.3332 29.8873 32.1201 29.783 33.1252 29.783C34.0354 29.783 34.8982 29.9347 35.7136 30.2381C36.548 30.5225 37.2875 30.9492 37.9323 31.5181C38.577 32.087 39.0795 32.7696 39.4398 33.5661C39.8191 34.3436 40.0087 35.2348 40.0087 36.2399C40.0087 37.6052 39.6863 38.8093 39.0416 39.8523C38.3969 40.8763 37.4772 41.6822 36.2825 42.2701C35.0878 42.839 33.6656 43.1234 32.0158 43.1234Z" fill="#fff"/></svg>