<svg width="64" height="64" viewBox="0 0 64 64" fill="none" xmlns="http://www.w3.org/2000/svg"><path fill-rule="evenodd" clip-rule="evenodd" d="M33.617 6.47321C32.6312 5.84226 31.3685 5.84226 30.3827 6.47321L5.38273 22.4732C3.9872 23.3663 3.57993 25.2217 4.47307 26.6172C5.36618 28.0127 7.22153 28.42 8.61703 27.5268L10.9999 26.0018V50C10.9999 54.4185 14.5816 58 18.9999 58H44.9999C49.4182 58 52.9999 54.4185 52.9999 50V26.0018L55.3829 27.5268C56.7784 28.42 58.6334 28.0127 59.5269 26.6172C60.4199 25.2217 60.0124 23.3663 58.6169 22.4732L33.617 6.47321Z" fill="#00BE4C"/><path d="M18.8257 47.7696C18.8257 47.2173 19.2734 46.7696 19.8257 46.7696H22.622C23.1743 46.7696 23.622 46.3218 23.622 45.7696V42.8702C23.622 42.318 24.0698 41.8702 24.622 41.8702H27.3875C27.9398 41.8702 28.3875 41.4225 28.3875 40.8702V37.9378C28.3875 37.3856 28.8352 36.9378 29.3875 36.9378H32.2281C32.7804 36.9378 33.2281 36.4901 33.2281 35.9378V33.0971C33.2281 32.5449 33.6758 32.0971 34.2281 32.0971H37.0359C37.5882 32.0971 38.0359 31.6494 38.0359 31.0971V28.2881C38.0359 27.7358 38.4836 27.2881 39.0359 27.2881H44.1743C44.7266 27.2881 45.1743 27.7358 45.1743 28.2881V28.7417C45.1743 29.294 44.7266 29.7417 44.1743 29.7417H41.4288C40.8765 29.7417 40.4288 30.1895 40.4288 30.7417V33.5691C40.4288 34.1214 39.9811 34.5691 39.4288 34.5691H36.6155C36.0632 34.5691 35.6155 35.0168 35.6155 35.5691V38.4644C35.6155 39.0167 35.1678 39.4644 34.6155 39.4644H31.8121C31.2598 39.4644 30.8121 39.9121 30.8121 40.4644V43.3342C30.8121 43.8865 30.3644 44.3342 29.8121 44.3342H26.9888C26.4365 44.3342 25.9888 44.7819 25.9888 45.3342V48.2453C25.9888 48.7976 25.5411 49.2453 24.9888 49.2453H19.8257C19.2734 49.2453 18.8257 48.7976 18.8257 48.2453V47.7696ZM40.3265 41.593H36.0848C34.9164 41.593 34.8715 43.3969 36.0848 43.3969H38.259L34.124 47.5468C33.2073 48.4669 34.5038 49.7981 35.4777 48.8207L39.5512 44.7213V46.881C39.545 48.0536 41.3575 48.0987 41.3602 46.881V42.6505C41.3602 42.0191 40.9381 41.593 40.3265 41.593Z" fill="#fff"/></svg>