<svg width="64" height="64" viewBox="0 0 64 64" fill="none" xmlns="http://www.w3.org/2000/svg"><path fill-rule="evenodd" clip-rule="evenodd" d="M32 32C29.2386 32 27 34.2386 27 37C27 39.7614 29.2386 42 32 42C34.7614 42 37 39.7614 37 37C37 34.2386 34.7614 32 32 32ZM30 37C30 35.8955 30.8955 35 32 35C33.1045 35 34 35.8955 34 37C34 38.1045 33.1045 39 32 39C30.8955 39 30 38.1045 30 37Z" fill="#00BE4C"/><path fill-rule="evenodd" clip-rule="evenodd" d="M33.617 6.47321C32.6312 5.84226 31.3685 5.84226 30.3827 6.47321L5.38273 22.4732C3.9872 23.3663 3.57993 25.2217 4.47307 26.6172C5.36618 28.0127 7.22153 28.42 8.61703 27.5268L10.9999 26.0018V50C10.9999 54.4185 14.5816 58 18.9999 58H44.9999C49.4182 58 52.9999 54.4185 52.9999 50V26.0018L55.3829 27.5268C56.7784 28.42 58.6334 28.0127 59.5269 26.6172C60.4199 25.2217 60.0124 23.3663 58.6169 22.4732L33.617 6.47321ZM29.7499 26.5C29.7499 25.6716 30.4214 25 31.2499 25H32.7499C33.5783 25 34.2499 25.6716 34.2499 26.5L34.4299 27.7605C34.5912 28.8892 35.9028 29.4324 36.8149 28.7484L37.8335 27.9844C38.4193 27.3986 39.369 27.3986 39.9548 27.9844L41.0155 29.0451C41.6013 29.6309 41.6013 30.5806 41.0155 31.1664L40.2515 32.185C39.5675 33.0971 40.1108 34.4087 41.2394 34.57L42.4999 34.75C43.3283 34.75 43.9999 35.4216 43.9999 36.25V37.75C43.9999 38.5785 43.3283 39.25 42.4999 39.25L41.2394 39.4301C40.1108 39.5913 39.5675 40.903 40.2515 41.815L41.0155 42.8337C41.6013 43.4194 41.6013 44.3692 41.0155 44.955L39.9548 46.0156C39.369 46.6014 38.4193 46.6014 37.8335 46.0156L36.8149 45.2517C35.9028 44.5676 34.5912 45.1109 34.4299 46.2395L34.2499 47.5C34.2499 48.3285 33.5783 49 32.7499 49H31.2499C30.4214 49 29.7499 48.3285 29.7499 47.5L29.5698 46.2395C29.4086 45.1109 28.0969 44.5676 27.1849 45.2517L26.1662 46.0156C25.5805 46.6014 24.6307 46.6014 24.0449 46.0156L22.9843 44.955C22.3985 44.3692 22.3985 43.4194 22.9843 42.8337L23.7482 41.815C24.4323 40.903 23.889 39.5913 22.7604 39.4301L21.4999 39.25C20.6714 39.25 19.9999 38.5785 19.9999 37.75V36.25C19.9999 35.4216 20.6714 34.75 21.4999 34.75L22.7604 34.57C23.889 34.4087 24.4323 33.0971 23.7482 32.185L22.9843 31.1664C22.3985 30.5806 22.3985 29.6309 22.9843 29.0451L24.0449 27.9844C24.6307 27.3986 25.5805 27.3986 26.1662 27.9844L27.1849 28.7484C28.0969 29.4324 29.4086 28.8892 29.5698 27.7605L29.7499 26.5Z" fill="#00BE4C"/></svg>