<svg width="40" height="40" viewBox="0 0 40 40" fill="none" xmlns="http://www.w3.org/2000/svg"><path d="M10.6497 18.2083C10.4685 18.2084 10.2905 18.1616 10.1328 18.0726C9.97508 17.9835 9.8431 17.8551 9.74967 17.7C8.68572 16.0234 8.20607 14.0421 8.38544 12.0646C8.5648 10.0871 9.3931 8.22439 10.7413 6.76665C11.4736 5.96767 12.364 5.3297 13.3561 4.89326C14.3481 4.45682 15.42 4.23145 16.5038 4.23145C17.5876 4.23145 18.6596 4.45682 19.6516 4.89326C20.6436 5.3297 21.5341 5.96767 22.2663 6.76665C23.5579 8.16527 24.3737 9.93681 24.5967 11.8275C24.8198 13.7181 24.4387 15.6309 23.508 17.2916C23.4199 17.467 23.2849 17.6145 23.1178 17.7175C22.9508 17.8206 22.7584 17.8751 22.5622 17.8751C22.3659 17.8751 22.1735 17.8206 22.0065 17.7175C21.8395 17.6145 21.7044 17.467 21.6163 17.2916C21.5201 17.1138 21.4696 16.9147 21.4696 16.7125C21.4696 16.5102 21.5201 16.3112 21.6163 16.1333C22.1681 15.1453 22.4551 14.0316 22.4497 12.9C22.4945 11.2707 21.8917 9.69013 20.7733 8.50455C19.6549 7.31896 18.1121 6.62509 16.483 6.57498C14.8524 6.62293 13.3075 7.31585 12.1873 8.50168C11.0671 9.6875 10.4631 11.2693 10.508 12.9C10.506 14.1514 10.8616 15.3773 11.533 16.4333C11.6442 16.6102 11.708 16.8128 11.7183 17.0215C11.7285 17.2302 11.6848 17.4381 11.5913 17.625C11.5051 17.8063 11.3693 17.9596 11.1998 18.0672C11.0303 18.1748 10.8338 18.2324 10.633 18.2333L10.6497 18.2083Z" fill="#121418"/><path d="M20.3169 18.6083C20.2485 18.5808 20.1841 18.5444 20.1253 18.5C20.0602 18.4556 20.0057 18.3975 19.9654 18.3299C19.9251 18.2622 19.9 18.1866 19.8919 18.1083V12.575L19.8419 12.3416C19.7566 11.9212 19.5834 11.5237 19.3336 11.175C19.135 10.9083 18.8927 10.6773 18.6169 10.4916C18.0634 10.1462 17.4189 9.97492 16.7669 9.99996C16.307 9.99189 15.8494 10.0681 15.4169 10.225C14.9251 10.3854 14.491 10.6864 14.1682 11.0906C13.8454 11.4949 13.648 11.9848 13.6003 12.5V23.0333L13.4753 22.9L13.3336 22.7666C12.9649 22.4823 12.5425 22.2754 12.0919 22.1583H11.9586C11.4471 22.0618 10.9193 22.1028 10.4288 22.277C9.93837 22.4513 9.50293 22.7525 9.16693 23.15C8.86644 23.427 8.62662 23.7633 8.46259 24.1376C8.29855 24.512 8.21387 24.9163 8.21387 25.325C8.21387 25.7337 8.29855 26.1379 8.46259 26.5123C8.62662 26.8866 8.86644 27.2229 9.16693 27.5L11.8669 30.55L14.5669 33.5916C15.1161 34.2623 15.8044 34.8057 16.5843 35.1841C17.3641 35.5625 18.2169 35.767 19.0836 35.7833H27.6336C28.363 35.6994 29.0654 35.4577 29.6919 35.075C30.3633 34.6384 30.9077 34.0327 31.2706 33.3187C31.6334 32.6048 31.8017 31.8079 31.7586 31.0083V23.7833V23.5916C31.6697 23.0697 31.4831 22.5693 31.2086 22.1166C30.901 21.6135 30.4816 21.1879 29.9831 20.8728C29.4845 20.5578 28.9201 20.3618 28.3336 20.3L20.3169 18.6083ZM16.3669 32.0583L10.9169 25.9C10.4669 25.4083 10.4669 25.175 10.9169 24.725C11.3669 24.275 11.4669 24.4083 11.5503 24.425C11.6833 24.4574 11.8081 24.5169 11.9169 24.6L14.0419 26.8916C14.1943 27.0579 14.3938 27.1737 14.6138 27.2235C14.8337 27.2734 15.0636 27.255 15.2728 27.1708C15.482 27.0866 15.6606 26.9405 15.7846 26.7522C15.9086 26.5638 15.9722 26.3421 15.9669 26.1166V12.7083C15.9669 12.375 16.4419 12.3083 16.8003 12.3083C17.1586 12.3083 17.4169 12.4833 17.4669 12.5416C17.5259 12.6234 17.5657 12.7174 17.5836 12.8166V18.15C17.6005 18.5911 17.7183 19.0224 17.9277 19.411C18.1372 19.7995 18.4328 20.135 18.7919 20.3916C19.1137 20.6153 19.4718 20.7816 19.8503 20.8833L27.9336 22.5916H28.0169C28.2537 22.6152 28.4815 22.6947 28.6814 22.8237C28.8814 22.9526 29.0478 23.1273 29.1669 23.3333C29.2916 23.5407 29.3764 23.7697 29.4169 24.0083V30.9916C29.4593 31.3942 29.3927 31.8007 29.2241 32.1686C29.0555 32.5366 28.7911 32.8525 28.4586 33.0833C28.1259 33.2853 27.7535 33.4132 27.3669 33.4583H19.1169C18.5987 33.4414 18.09 33.3145 17.6245 33.0861C17.159 32.8577 16.7474 32.5329 16.4169 32.1333L16.3669 32.075V32.0583Z" fill="#121418"/></svg>