<svg width="62" height="62" viewBox="0 0 62 62" fill="none" xmlns="http://www.w3.org/2000/svg"><path opacity=".8" d="M31.0003 5.16675C45.2603 5.16675 56.8337 16.7401 56.8337 31.0001C56.8337 45.2601 45.2603 56.8334 31.0003 56.8334C16.7403 56.8334 5.16699 45.2601 5.16699 31.0001C5.16699 16.7401 16.7403 5.16675 31.0003 5.16675ZM31.0003 51.6668C42.4367 51.6668 51.667 42.4365 51.667 31.0001C51.667 19.5637 42.4367 10.3334 31.0003 10.3334C28.2854 10.33 25.5964 10.8623 23.0875 11.8996C20.5786 12.937 18.299 14.4592 16.3792 16.379C14.4594 18.2987 12.9373 20.5783 11.8999 23.0873C10.8625 25.5962 10.3303 28.2851 10.3337 31.0001C10.3337 42.4365 19.5639 51.6668 31.0003 51.6668ZM31.0003 46.5001C22.4237 46.5001 15.5003 39.5767 15.5003 31.0001C15.5003 22.4234 22.4237 15.5001 31.0003 15.5001C39.577 15.5001 46.5003 22.4234 46.5003 31.0001C46.5003 39.5767 39.577 46.5001 31.0003 46.5001ZM31.0003 25.8334C28.1587 25.8334 25.8337 28.1584 25.8337 31.0001C25.8337 33.8417 28.1587 36.1667 31.0003 36.1667C33.842 36.1667 36.167 33.8417 36.167 31.0001C36.167 28.1584 33.842 25.8334 31.0003 25.8334Z" fill="#121418"/></svg>