<svg width="62" height="62" viewBox="0 0 62 62" fill="none" xmlns="http://www.w3.org/2000/svg"><path opacity=".8" d="M9.77275 7.30042L31 2.58325L52.2272 7.30042C52.8009 7.42794 53.314 7.74725 53.6817 8.20563C54.0494 8.66402 54.2499 9.23409 54.25 9.82175V35.6215C54.2498 38.1731 53.6197 40.6853 52.4155 42.9349C51.2114 45.1846 49.4705 47.1022 47.3473 48.5175L31 59.4166L14.6527 48.5175C12.5299 47.1024 10.7892 45.1853 9.58507 42.9361C8.38094 40.6869 7.75061 38.1753 7.75 35.6241V9.82175C7.7501 9.23409 7.95056 8.66402 8.31831 8.20563C8.68605 7.74725 9.19909 7.42794 9.77275 7.30042V7.30042Z" fill="#121418"/></svg>