<svg width="62" height="62" viewBox="0 0 62 62" fill="none" xmlns="http://www.w3.org/2000/svg"><path opacity=".8" d="M46.5 20.6666H51.6667C52.3518 20.6666 53.0089 20.9388 53.4934 21.4232C53.9778 21.9077 54.25 22.5648 54.25 23.2499V54.2499C54.25 54.9351 53.9778 55.5921 53.4934 56.0766C53.0089 56.5611 52.3518 56.8333 51.6667 56.8333H10.3333C9.64819 56.8333 8.99111 56.5611 8.50664 56.0766C8.02217 55.5921 7.75 54.9351 7.75 54.2499V23.2499C7.75 22.5648 8.02217 21.9077 8.50664 21.4232C8.99111 20.9388 9.64819 20.6666 10.3333 20.6666H15.5V18.0833C15.5 13.9724 17.133 10.0299 20.0398 7.1231C22.9467 4.21628 26.8891 2.58325 31 2.58325C35.1109 2.58325 39.0533 4.21628 41.9602 7.1231C44.867 10.0299 46.5 13.9724 46.5 18.0833V20.6666ZM41.3333 20.6666V18.0833C41.3333 15.3427 40.2446 12.7144 38.3068 10.7765C36.3689 8.83861 33.7406 7.74992 31 7.74992C28.2594 7.74992 25.6311 8.83861 23.6932 10.7765C21.7554 12.7144 20.6667 15.3427 20.6667 18.0833V20.6666H41.3333ZM28.4167 36.1666V41.3333H33.5833V36.1666H28.4167ZM18.0833 36.1666V41.3333H23.25V36.1666H18.0833ZM38.75 36.1666V41.3333H43.9167V36.1666H38.75Z" fill="#121418"/></svg>