<svg width="62" height="62" viewBox="0 0 62 62" fill="none" xmlns="http://www.w3.org/2000/svg"><path d="M33.583 36.327V56.8335H10.333C10.3327 53.9012 10.9564 51.0025 12.1627 48.3298C13.369 45.6572 15.1301 43.2718 17.3292 41.3322C19.5283 39.3926 22.115 37.9432 24.9174 37.0802C27.7198 36.2172 30.6738 35.9605 33.583 36.327V36.327ZM30.9997 33.5835C22.4359 33.5835 15.4997 26.6472 15.4997 18.0835C15.4997 9.51975 22.4359 2.5835 30.9997 2.5835C39.5634 2.5835 46.4997 9.51975 46.4997 18.0835C46.4997 26.6472 39.5634 33.5835 30.9997 33.5835ZM45.9649 51.4447L55.097 42.3126L58.7524 45.9654L45.9649 58.7529L36.8303 49.6183L40.4857 45.9654L45.9623 51.4447H45.9649Z" fill="#00BE4C"/></svg>