<svg width="62" height="62" viewBox="0 0 62 62" fill="none" xmlns="http://www.w3.org/2000/svg"><path opacity=".8" d="M33.7 25.2598V52.4056C43.4713 51.1825 51.2149 43.3984 52.4326 33.5812H44.5L54.5008 17.5C56.8018 21.5781 58.0073 26.1826 58 30.865C58 45.85 45.9121 58 31 58C16.0879 58 4 45.85 4 30.865C4 26.005 5.2717 21.4447 7.4992 17.5L17.5 33.5812H9.5674C10.7851 43.3984 18.5314 51.1825 28.3 52.4056V25.2598C25.7607 24.5963 23.5496 23.0313 22.0797 20.857C20.6098 18.6827 19.9816 16.0477 20.3122 13.444C20.6429 10.8404 21.9099 8.44606 23.8766 6.70818C25.8434 4.9703 28.3754 4.00766 31 4.00001C33.6305 3.99741 36.1715 4.95495 38.1461 6.69292C40.1208 8.43088 41.3932 10.8298 41.7246 13.4393C42.056 16.0489 41.4236 18.6897 39.9461 20.8661C38.4686 23.0424 36.2476 24.6048 33.7 25.2598V25.2598ZM31 20.2C32.4322 20.2 33.8057 19.6311 34.8184 18.6184C35.8311 17.6057 36.4 16.2322 36.4 14.8C36.4 13.3678 35.8311 11.9943 34.8184 10.9816C33.8057 9.96893 32.4322 9.4 31 9.4C29.5678 9.4 28.1943 9.96893 27.1816 10.9816C26.1689 11.9943 25.6 13.3678 25.6 14.8C25.6 16.2322 26.1689 17.6057 27.1816 18.6184C28.1943 19.6311 29.5678 20.2 31 20.2Z" fill="#121418"/></svg>