<svg width="90" height="90" viewBox="0 0 90 90" fill="none" xmlns="http://www.w3.org/2000/svg"><path d="M59.9188 44.9858C59.9188 53.2249 53.2396 59.9041 45.0004 59.9041C36.7612 59.9041 30.082 53.2249 30.082 44.9858C30.082 36.7466 36.7612 30.0674 45.0004 30.0674C53.2396 30.0674 59.9188 36.7466 59.9188 44.9858ZM37.5412 44.9858C37.5412 49.1053 40.8808 52.4449 45.0004 52.4449C49.12 52.4449 52.4596 49.1053 52.4596 44.9858C52.4596 40.8662 49.12 37.5266 45.0004 37.5266C40.8808 37.5266 37.5412 40.8662 37.5412 44.9858Z" fill="#121418"/><path d="M81.4128 42.3378L72.6003 33.7503V21.1503C72.6003 20.1557 72.2052 19.2019 71.5019 18.4986C70.7986 17.7953 69.8448 17.4003 68.8503 17.4003H56.4378L47.6628 8.58776C47.3141 8.23628 46.8994 7.9573 46.4424 7.76692C45.9854 7.57653 45.4953 7.47852 45.0003 7.47852C44.5052 7.47852 44.0151 7.57653 43.5581 7.76692C43.1011 7.9573 42.6864 8.23628 42.3378 8.58776L33.7503 17.4003H21.1503C20.1557 17.4003 19.2019 17.7953 18.4986 18.4986C17.7953 19.2019 17.4003 20.1557 17.4003 21.1503V33.7503L8.58776 42.3378C8.23628 42.6864 7.9573 43.1011 7.76692 43.5581C7.57653 44.0151 7.47852 44.5052 7.47852 45.0003C7.47852 45.4953 7.57653 45.9854 7.76692 46.4424C7.9573 46.8994 8.23628 47.3141 8.58776 47.6628L17.4003 56.4378V68.8503C17.4003 69.8448 17.7953 70.7986 18.4986 71.5019C19.2019 72.2052 20.1557 72.6003 21.1503 72.6003H33.7503L42.5253 81.4128C42.8739 81.7642 43.2886 82.0432 43.7456 82.2336C44.2026 82.424 44.6927 82.522 45.1878 82.522C45.6828 82.522 46.173 82.424 46.6299 82.2336C47.0869 82.0432 47.5017 81.7642 47.8503 81.4128L56.6253 72.6003H69.0378C70.0323 72.6003 70.9862 72.2052 71.6894 71.5019C72.3927 70.7986 72.7878 69.8448 72.7878 68.8503V56.4378L81.6003 47.6628C81.9398 47.3019 82.2044 46.8774 82.3788 46.4137C82.5533 45.95 82.6342 45.4563 82.6167 44.9612C82.5993 44.466 82.4839 43.9793 82.2773 43.529C82.0706 43.0787 81.7768 42.6738 81.4128 42.3378ZM66.2253 52.2378C65.8709 52.5851 65.589 52.9992 65.3959 53.4563C65.2028 53.9133 65.1023 54.4041 65.1003 54.9003V65.1003H54.9003C54.4041 65.1023 53.9133 65.2028 53.4563 65.3959C52.9992 65.589 52.5851 65.8709 52.2378 66.2253L45.0003 73.4628L37.7628 66.2253C37.4155 65.8709 37.0013 65.589 36.5443 65.3959C36.0872 65.2028 35.5964 65.1023 35.1003 65.1003H24.9003V54.9003C24.8982 54.4041 24.7977 53.9133 24.6046 53.4563C24.4115 52.9992 24.1296 52.5851 23.7753 52.2378L16.5378 45.0003L23.7753 37.7628C24.1296 37.4155 24.4115 37.0013 24.6046 36.5443C24.7977 36.0872 24.8982 35.5964 24.9003 35.1003V24.9003H35.1003C35.5964 24.8982 36.0872 24.7977 36.5443 24.6046C37.0013 24.4115 37.4155 24.1296 37.7628 23.7753L45.0003 16.5378L52.2378 23.7753C52.5851 24.1296 52.9992 24.4115 53.4563 24.6046C53.9133 24.7977 54.4041 24.8982 54.9003 24.9003H65.1003V35.1003C65.1023 35.5964 65.2028 36.0872 65.3959 36.5443C65.589 37.0013 65.8709 37.4155 66.2253 37.7628L73.4628 45.0003L66.2253 52.2378Z" fill="#121418"/></svg>