<svg width="64" height="64" viewBox="0 0 64 64" fill="none" xmlns="http://www.w3.org/2000/svg"><path d="M48.9002 24.5635C48.8182 24.3945 48.6903 24.2521 48.5311 24.1524C48.372 24.0528 48.1879 23.9999 48.0002 24H37.5802L45.904 6.4277C45.9762 6.27531 46.0088 6.1071 45.9985 5.93874C45.9883 5.77038 45.9356 5.60735 45.8454 5.46484C45.7552 5.32233 45.6304 5.20497 45.4826 5.12369C45.3348 5.04241 45.1688 4.99986 45.0002 5H29.0002C28.8073 4.99997 28.6185 5.05573 28.4566 5.16055C28.2946 5.26538 28.1665 5.4148 28.0876 5.5908L15.0876 34.5908C15.0193 34.7431 14.9902 34.9101 15.0029 35.0765C15.0157 35.2429 15.0699 35.4035 15.1606 35.5436C15.2514 35.6837 15.3757 35.7988 15.5224 35.8786C15.669 35.9583 15.8332 36 16.0002 36H25.7594L21.0231 57.7871C20.9748 58.0082 21.0029 58.2391 21.1028 58.4421C21.2027 58.6451 21.3685 58.8083 21.5732 58.9049C21.7778 59.0015 22.0091 59.0258 22.2294 58.9739C22.4497 58.922 22.6458 58.7969 22.7858 58.6191L48.7858 25.6191C48.9019 25.4716 48.9742 25.2944 48.9944 25.1077C49.0146 24.9211 48.982 24.7325 48.9002 24.5635Z" fill="#00BE4C"/></svg>