<svg width="79" height="20" viewBox="0 0 79 20" fill="none" xmlns="http://www.w3.org/2000/svg"><g clip-path="url(#clip0_395_38)" fill="#227247"><path d="M1.5418 7.73222C1.04975 8.0167 0.418859 7.84829 0.138009 7.35626C-0.146028 6.86376 0.0223913 6.2329 0.514448 5.95206L10.3119 0.297513L10.7084 0.067198C10.7798 0.0257777 10.8681 0.0257777 10.9391 0.067198L11.3356 0.297513L15.735 2.83325C15.7382 2.83507 15.7423 2.8328 15.7423 2.82916V1.14276C15.7423 0.548766 16.2425 0.0722049 16.8415 0.111349C17.3923 0.147308 17.8065 0.632061 17.8065 1.18418V3.86148C17.8065 3.91655 17.8002 3.96844 17.7938 4.02033C17.7938 4.02215 17.7942 4.02352 17.7961 4.02488L19.2404 4.85875C19.2995 4.88515 19.3523 4.91838 19.4051 4.95479L21.133 5.95206C21.6251 6.2329 21.7935 6.86376 21.5127 7.35626C21.2286 7.84829 20.6009 8.0167 20.1089 7.73222L19.8485 7.58475C19.8453 7.58247 19.8417 7.58475 19.8417 7.58839V17.9453C19.8417 18.0459 19.7602 18.1269 19.6601 18.1269H9.82483C9.82119 18.1269 9.81892 18.1228 9.82119 18.1196L10.8536 16.5352L11.0188 16.2839C11.2996 15.8547 11.6032 15.3922 11.9105 14.887C13.2055 12.7696 14.3913 10.2197 12.3698 8.98439C12.1945 8.87515 12.0029 8.80278 11.8049 8.76318C11.428 8.68717 11.0352 8.73997 10.6751 8.90838C10.295 9.0868 9.94865 9.39723 9.68737 9.82645C9.50575 10.1173 9.36692 10.4737 9.28453 10.8834L8.96908 12.4719C8.96817 12.4751 8.96408 12.4764 8.96135 12.4746L7.65951 11.511C7.33542 11.2666 6.99858 11.1014 6.66857 10.9994C6.18289 10.8538 5.71359 10.8569 5.30756 10.9794C4.92111 11.0982 4.59064 11.3194 4.36624 11.6235C4.25062 11.7787 4.1614 11.9571 4.10177 12.1583C3.78815 13.1956 4.09859 13.9521 4.72629 14.517C5.4992 15.2206 6.73457 15.7227 7.97996 16.1123C8.52482 16.2807 8.82889 16.8588 8.65683 17.4036C8.48841 17.9453 7.91032 18.2493 7.36865 18.0809C5.89202 17.6185 4.39582 16.994 3.34571 16.0427C2.14311 14.953 1.53543 13.5192 2.12308 11.5707C2.25554 11.1378 2.45354 10.745 2.71118 10.3981C3.21006 9.73087 3.90695 9.2452 4.70945 9.00396C5.48918 8.76955 6.37088 8.75635 7.25622 9.02399C7.40051 9.06996 7.54754 9.11866 7.69183 9.17738C7.69411 9.17875 7.69638 9.17738 7.69729 9.17556C7.76967 9.02809 7.84523 8.88744 7.92716 8.75317C8.40602 7.97028 9.06649 7.39221 9.80617 7.04538C10.5659 6.68852 11.4016 6.57974 12.2077 6.73814C12.6306 6.82416 13.0466 6.9862 13.4431 7.22699C17.0141 9.40724 15.4678 13.014 13.6712 15.9571L13.6052 16.0627H17.7724C17.7747 16.0627 17.7769 16.0604 17.7769 16.0577V6.39084C17.7769 6.38902 17.776 6.38766 17.7747 6.38675L10.8262 2.37626C10.8249 2.37535 10.8231 2.37535 10.8212 2.37626"/><path d="M28.2673 5.11885C28.2422 5.44521 28.1899 5.71876 28.1098 5.94452H30.1868V1.42425H28.5531L28.2673 5.11885ZM32.7122 5.94452C32.7955 5.94452 32.851 6.00005 32.851 6.08335V8.57494C32.851 8.65823 32.7955 8.71377 32.7122 8.71377H31.3489C31.2656 8.71377 31.2101 8.65823 31.2101 8.57494V7.36829H26.9322V8.57494C26.9322 8.65823 26.8767 8.71377 26.7934 8.71377H25.4301C25.3468 8.71377 25.2913 8.65823 25.2913 8.57494V6.08335C25.2913 6.00005 25.3468 5.94452 25.4301 5.94452H26.3482C26.4966 5.82208 26.5981 5.58904 26.6259 5.18485L27.0041 0.130211C27.0123 0.0555636 27.0683 0.000488281 27.143 0.000488281H31.6894C31.7727 0.000488281 31.8282 0.0555636 31.8282 0.138859V5.94452"/><path d="M35.8228 3.22046C35.2948 3.22046 34.9407 3.57822 34.9407 4.27691V5.19726C34.9407 5.89594 35.2948 6.2537 35.8228 6.2537H35.8829C36.4114 6.2537 36.7655 5.89594 36.7655 5.19726V4.27691C36.7655 3.57822 36.4114 3.22046 35.8829 3.22046H35.8228ZM35.9107 1.96875C37.2216 1.96875 38.3632 2.81536 38.3632 4.34746V5.12625C38.3632 6.65834 37.2216 7.50541 35.9107 7.50541H35.7951C34.4841 7.50541 33.3425 6.65834 33.3425 5.12625V4.34746C33.3425 2.81536 34.4841 1.96875 35.7951 1.96875"/><path d="M44.7627 2.10547C44.846 2.10547 44.9015 2.161 44.9015 2.24429V7.22975C44.9015 7.31304 44.846 7.36857 44.7627 7.36857H43.4763C43.393 7.36857 43.3375 7.31304 43.3375 7.22975V5.51559L43.5787 3.88335H43.3958L42.4613 5.78277C42.4217 5.86834 42.3461 5.91477 42.2592 5.91477H41.7635C41.6765 5.91477 41.601 5.86834 41.5613 5.78277L40.6269 3.88335H40.4439L40.6851 5.51559V7.22975C40.6851 7.31304 40.6296 7.36857 40.5463 7.36857H39.2599C39.1766 7.36857 39.1211 7.31304 39.1211 7.22975V2.24429C39.1211 2.161 39.1766 2.10547 39.2599 2.10547H40.8927C40.9796 2.10547 41.0028 2.161 41.0429 2.24612L41.992 4.21745H42.0306L42.9797 2.24612C43.0198 2.161 43.043 2.10547 43.1299 2.10547"/><path d="M31.3446 10.7368C31.4279 10.7368 31.4835 10.7923 31.4835 10.8756V17.9662C31.4835 18.0495 31.4279 18.1051 31.3446 18.1051H29.9809C29.898 18.1051 29.8425 18.0495 29.8425 17.9662V12.161H27.2862V17.9662C27.2862 18.0495 27.2306 18.1051 27.1478 18.1051H25.7836C25.7008 18.1051 25.6448 18.0495 25.6448 17.9662V10.8756C25.6448 10.7923 25.7008 10.7368 25.7836 10.7368"/><path d="M34.8837 13.8449C34.3907 13.8449 34.0889 14.2181 34.0598 14.8931H35.7285C35.749 14.1908 35.4963 13.8449 34.9265 13.8449H34.8837ZM34.9802 12.7056C36.2192 12.7056 37.1855 13.4748 37.1855 15.0069V15.5668C37.1855 15.6928 37.0872 15.7916 36.9607 15.7916H34.0643L34.0671 15.96C34.0643 16.6824 34.5546 17.016 35.2046 17.016H35.2556C35.7121 17.016 36.2224 16.8526 36.7945 16.6414C36.8674 16.6136 36.9334 16.6582 36.9334 16.7415V17.7051C36.9334 17.8098 36.8951 17.8667 36.8187 17.8968C36.4918 18.0506 35.6461 18.2422 35.0252 18.2422H34.9187C33.5486 18.2422 32.4575 17.4334 32.4575 15.7875V15.2172C32.4575 13.6164 33.5573 12.7056 34.8645 12.7056"/><path d="M42.119 12.8423C42.2023 12.8423 42.2578 12.8978 42.2578 12.9811V13.9124C42.2578 13.9957 42.2023 14.0512 42.119 14.0512H40.7166V17.967C40.7166 18.0503 40.6606 18.1054 40.5777 18.1054H39.2914C39.2081 18.1054 39.1526 18.0503 39.1526 17.967V14.0512H37.7497C37.6664 14.0512 37.6108 13.9957 37.6108 13.9124V12.9811C37.6108 12.8978 37.6664 12.8423 37.7497 12.8423"/><path d="M45.1383 13.8449C44.6453 13.8449 44.3435 14.2181 44.3144 14.8931H45.9831C46.0041 14.1908 45.7514 13.8449 45.1811 13.8449H45.1383ZM45.2348 12.7056C46.4738 12.7056 47.4402 13.4748 47.4402 15.0069V15.5668C47.4402 15.6928 47.3419 15.7916 47.2158 15.7916H44.319L44.3217 15.96C44.319 16.6824 44.8097 17.016 45.4592 17.016H45.5102C45.9667 17.016 46.477 16.8526 47.0492 16.6414C47.122 16.6136 47.188 16.6582 47.188 16.7415V17.7051C47.188 17.8098 47.1498 17.8667 47.0733 17.8968C46.7469 18.0506 45.9007 18.2422 45.2799 18.2422H45.1738C43.8032 18.2422 42.7122 17.4334 42.7122 15.7875V15.2172C42.7122 13.6164 43.8119 12.7056 45.1192 12.7056"/><path d="M50.6414 13.9573C50.3765 13.9573 50.0692 14.0642 49.7706 14.2886V16.6414C50.0797 16.8767 50.401 16.9905 50.6414 16.9905H50.6883C51.1985 16.9905 51.4939 16.6328 51.4939 15.9341V15.0133C51.4939 14.315 51.1985 13.9573 50.6883 13.9573H50.6414ZM51.1812 12.7056C52.4485 12.7056 53.0921 13.7156 53.0921 14.9723V15.8631C53.0921 17.3952 52.1813 18.2418 51.0174 18.2418H50.9154C50.4921 18.2418 50.0897 18.1152 49.7706 17.8294V19.7243C49.7706 19.8075 49.7151 19.8631 49.6318 19.8631H48.3459C48.2626 19.8631 48.207 19.8075 48.207 19.7243V12.9809C48.207 12.8976 48.2626 12.8421 48.3459 12.8421H49.477C49.543 12.8421 49.5899 12.8804 49.6072 12.9464L49.6718 13.3269C49.9973 12.9718 50.4889 12.7056 51.0788 12.7056"/><path d="M57.1091 15.1931C57.1091 14.4948 56.8137 14.1366 56.3034 14.1366H56.2566C55.9907 14.1366 55.6862 14.2422 55.3858 14.4689V15.9341C55.3858 16.6323 55.6653 16.9905 56.1933 16.9905H56.2538C56.7686 16.9905 57.1091 16.6323 57.1091 15.9341V15.1931ZM56.7964 12.8854C58.0632 12.8854 58.7073 13.8958 58.7073 15.1521V15.8631C58.7073 17.3952 57.5789 18.2418 56.2816 18.2418H56.1655C54.8546 18.2418 53.7881 17.3952 53.7881 15.8631V13.4611C53.7881 11.5572 54.6853 10.6145 56.6166 10.6145H56.6671C57.4701 10.6145 57.8893 10.4584 58.3354 10.2299C58.4082 10.1935 58.4742 10.2468 58.4742 10.33V11.3196C58.4742 11.4243 58.4187 11.4798 58.3249 11.528C57.7546 11.8635 57.0768 11.8662 56.557 11.8662H56.5065C55.8059 11.8662 55.3858 12.199 55.3858 12.9687V13.4134C55.7181 13.0988 56.1705 12.8854 56.694 12.8854"/><path d="M64.1267 12.8427C64.2355 12.8427 64.3065 12.9324 64.2706 13.0416L62.5236 18.3293C62.2263 19.2433 61.7311 20.0003 60.6163 20.0003H60.5358C60.117 20.0003 59.6172 19.8701 59.5189 19.8268C59.4574 19.8059 59.4215 19.7399 59.4215 19.6721V18.7226C59.4215 18.6461 59.4875 18.5974 59.5635 18.6184C59.8662 18.7149 60.0919 18.7745 60.34 18.7745H60.3646C60.6732 18.7745 60.8298 18.6334 60.939 18.3225L61.0142 18.1054H60.8098C60.7483 18.1054 60.6978 18.0653 60.6764 18.0043L59.045 13.0416C59.0086 12.9324 59.0796 12.8423 59.1907 12.8423H60.4902C60.5517 12.8423 60.6022 12.8828 60.6231 12.9438L61.2586 14.8969L61.6464 16.8022H61.6692L62.0565 14.8969L62.692 12.9438C62.7129 12.8828 62.7639 12.8423 62.8253 12.8423"/><path d="M67.2861 13.9573C67.0212 13.9573 66.714 14.0642 66.4154 14.2886V16.6414C66.7244 16.8767 67.0458 16.9905 67.2861 16.9905H67.333C67.8433 16.9905 68.1387 16.6328 68.1387 15.9341V15.0133C68.1387 14.315 67.8433 13.9573 67.333 13.9573H67.2861ZM67.826 12.7056C69.0932 12.7056 69.7369 13.7156 69.7369 14.9723V15.8631C69.7369 17.3952 68.826 18.2418 67.6621 18.2418H67.5602C67.1368 18.2418 66.7345 18.1152 66.4154 17.8294V19.7243C66.4154 19.8075 66.3598 19.8631 66.2765 19.8631H64.9906C64.9073 19.8631 64.8518 19.8075 64.8518 19.7243V12.9809C64.8518 12.8976 64.9073 12.8421 64.9906 12.8421H66.1218C66.1878 12.8421 66.2347 12.8804 66.252 12.9464L66.3166 13.3269C66.6421 12.9718 67.1337 12.7056 67.7236 12.7056"/><path d="M74.0376 12.8423C74.1209 12.8423 74.1765 12.8978 74.1765 12.9811V13.9124C74.1765 13.9957 74.1209 14.0508 74.0376 14.0508H72.0585V17.9666C72.0585 18.0499 72.0029 18.1054 71.9201 18.1054H70.6337C70.5504 18.1054 70.4954 18.0499 70.4954 17.9666V12.9811C70.4954 12.8978 70.5504 12.8423 70.6337 12.8423"/><path d="M76.9024 15.7971C76.2948 15.8066 76.0317 16.046 76.0317 16.4366V16.4716C76.0317 16.8162 76.2724 17.0506 76.6352 17.0506H76.6862C76.9407 17.0506 77.1664 16.9441 77.4364 16.7056V15.7884L76.9024 15.7971ZM76.9434 12.7056C78.0513 12.7056 78.9822 13.1248 78.9999 14.7083V17.9664C78.9999 18.0497 78.9444 18.1052 78.8611 18.1052H77.7304C77.664 18.1052 77.6171 18.067 77.5998 18.001L77.5156 17.5445C77.2028 17.8508 76.6525 18.2422 76.0075 18.2422H75.9529C74.9538 18.2422 74.459 17.5272 74.459 16.7456V16.6346C74.459 15.5972 75.134 15.0419 76.6899 14.9291L77.435 14.8772L77.4323 14.7698C77.4364 14.1175 77.1692 13.9313 76.5802 13.9313H76.5551C76.0986 13.9313 75.581 14.0947 75.0088 14.2545C74.936 14.2736 74.87 14.2377 74.87 14.1544V13.2163C74.87 13.112 74.9083 13.046 74.9847 13.0251C75.4577 12.8794 76.1646 12.7056 76.8974 12.7056"/></g><defs><clipPath id="clip0_395_38"><path fill="#fff" d="M0 0H79V20H0z"/></clipPath></defs></svg>