<svg width="201" height="51" viewBox="0 0 201 51" fill="none" xmlns="http://www.w3.org/2000/svg"><path d="M3.92282 19.7163C2.67088 20.4418 1.0657 20.0123 0.351136 18.7576C-0.371539 17.5018 0.0569703 15.8931 1.30891 15.1769L26.2366 0.757828L27.2453 0.170525C27.4271 0.0649032 27.6518 0.0649032 27.8325 0.170525L28.8412 0.757828L40.0346 7.22396C40.0427 7.22861 40.0531 7.2228 40.0531 7.21352V2.91321C40.0531 1.39852 41.3259 0.183292 42.85 0.283111C44.2513 0.374804 45.3052 1.61093 45.3052 3.01883V9.84594C45.3052 9.98638 45.289 10.1187 45.2728 10.251C45.2728 10.2557 45.274 10.2591 45.2786 10.2626L48.9533 12.389C49.1039 12.4563 49.2382 12.541 49.3726 12.6339L53.7689 15.1769C55.0208 15.8931 55.4493 17.5018 54.7347 18.7576C54.0121 20.0123 52.415 20.4418 51.1631 19.7163L50.5006 19.3403C50.4925 19.3345 50.4832 19.3403 50.4832 19.3496V45.7596C50.4832 46.0161 50.2759 46.2227 50.0211 46.2227H24.9974C24.9881 46.2227 24.9823 46.2123 24.9881 46.2042L27.6147 42.1638L28.0351 41.5232C28.7497 40.4286 29.5222 39.2494 30.3039 37.961C33.5988 32.5616 36.6158 26.0594 31.4725 22.9094C31.0266 22.6308 30.539 22.4463 30.0352 22.3453C29.0763 22.1514 28.0768 22.2861 27.1608 22.7155C26.1937 23.1705 25.3124 23.9621 24.6476 25.0566C24.1855 25.7983 23.8323 26.7071 23.6227 27.7517L22.8201 31.8025C22.8178 31.8106 22.8073 31.8141 22.8004 31.8094L19.4881 29.3523C18.6635 28.729 17.8065 28.3077 16.9669 28.0477C15.7311 27.6763 14.5371 27.6844 13.5041 27.9966C12.5208 28.2996 11.68 28.8636 11.109 29.639C10.8149 30.0348 10.5879 30.4898 10.4362 31.0028C9.6382 33.648 10.4281 35.577 12.0251 37.0174C13.9916 38.8118 17.1348 40.092 20.3034 41.0856C21.6897 41.515 22.4634 42.9891 22.0256 44.3784C21.5971 45.7596 20.1263 46.535 18.7481 46.1055C14.9911 44.9263 11.1843 43.3338 8.5125 40.908C5.45271 38.1293 3.9066 34.4732 5.40175 29.5043C5.73877 28.4005 6.24256 27.3989 6.89806 26.5144C8.16737 24.8129 9.94048 23.5744 11.9823 22.9593C13.9661 22.3615 16.2094 22.3279 18.462 23.0103C18.8291 23.1276 19.2032 23.2518 19.5704 23.4015C19.5761 23.405 19.5819 23.4015 19.5842 23.3969C19.7684 23.0208 19.9606 22.6621 20.1691 22.3197C21.3875 20.3234 23.0679 18.8493 24.9499 17.9649C26.8828 17.0549 29.0091 16.7775 31.0602 17.1814C32.1361 17.4008 33.1946 17.814 34.2034 18.428C43.2889 23.9876 39.3547 33.1848 34.7836 40.6898L34.6157 40.9591H45.2184C45.2242 40.9591 45.2299 40.9533 45.2299 40.9463V16.2958C45.2299 16.2912 45.2276 16.2877 45.2242 16.2854L27.5453 6.05864C27.5418 6.05632 27.5371 6.05632 27.5325 6.05864" fill="#227247"/><path d="M71.92 13.0518C71.8563 13.884 71.7231 14.5816 71.5193 15.1573H76.8039V3.6306H72.6473L71.92 13.0518ZM83.2292 15.1573C83.4411 15.1573 83.5824 15.2989 83.5824 15.5113V21.8648C83.5824 22.0773 83.4411 22.2189 83.2292 22.2189H79.7606C79.5486 22.2189 79.4073 22.0773 79.4073 21.8648V18.7879H68.5232V21.8648C68.5232 22.0773 68.3819 22.2189 68.17 22.2189H64.7014C64.4894 22.2189 64.3481 22.0773 64.3481 21.8648V15.5113C64.3481 15.2989 64.4894 15.1573 64.7014 15.1573H67.0373C67.4149 14.8451 67.6731 14.2508 67.7438 13.2201L68.7062 0.330793C68.727 0.140442 68.8695 0 69.0594 0H80.6269C80.8388 0 80.9801 0.140442 80.9801 0.352846V15.1573" fill="#227247"/><path d="M91.1442 8.21091C89.8007 8.21091 88.8997 9.1232 88.8997 10.9048V13.2517C88.8997 15.0334 89.8007 15.9457 91.1442 15.9457H91.297C92.6416 15.9457 93.5427 15.0334 93.5427 13.2517V10.9048C93.5427 9.1232 92.6416 8.21091 91.297 8.21091H91.1442ZM91.3677 5.01904C94.7031 5.01904 97.6077 7.1779 97.6077 11.0847V13.0707C97.6077 16.9775 94.7031 19.1375 91.3677 19.1375H91.0735C87.7381 19.1375 84.8335 16.9775 84.8335 13.0707V11.0847C84.8335 7.1779 87.7381 5.01904 91.0735 5.01904" fill="#227247"/><path d="M113.89 5.36816C114.102 5.36816 114.243 5.50977 114.243 5.72217V18.4351C114.243 18.6475 114.102 18.7891 113.89 18.7891H110.617C110.405 18.7891 110.264 18.6475 110.264 18.4351V14.064L110.878 9.90177H110.412L108.035 14.7453C107.934 14.9635 107.742 15.0819 107.52 15.0819H106.259C106.038 15.0819 105.846 14.9635 105.745 14.7453L103.367 9.90177H102.902L103.515 14.064V18.4351C103.515 18.6475 103.374 18.7891 103.162 18.7891H99.8894C99.6774 18.7891 99.5361 18.6475 99.5361 18.4351V5.72217C99.5361 5.50977 99.6774 5.36816 99.8894 5.36816H104.044C104.265 5.36816 104.324 5.50977 104.426 5.72681L106.84 10.7537H106.939L109.354 5.72681C109.456 5.50977 109.515 5.36816 109.736 5.36816" fill="#227247"/><path d="M79.7502 27.3784C79.9621 27.3784 80.1034 27.52 80.1034 27.7324V45.8135C80.1034 46.0259 79.9621 46.1675 79.7502 46.1675H76.2804C76.0696 46.1675 75.9283 46.0259 75.9283 45.8135V31.0102H69.4243V45.8135C69.4243 46.0259 69.283 46.1675 69.0722 46.1675H65.6013C65.3905 46.1675 65.248 46.0259 65.248 45.8135V27.7324C65.248 27.52 65.3905 27.3784 65.6013 27.3784" fill="#227247"/><path d="M88.7549 35.3031C87.5006 35.3031 86.7328 36.2549 86.6587 37.9762H90.9044C90.9565 36.1852 90.3137 35.3031 88.8637 35.3031H88.7549ZM89.0004 32.3979C92.1528 32.3979 94.6116 34.3595 94.6116 38.2663V39.694C94.6116 40.0155 94.3614 40.2673 94.0394 40.2673H86.6702L86.6772 40.6968C86.6702 42.5388 87.9175 43.3896 89.5714 43.3896H89.7011C90.8627 43.3896 92.1609 42.9729 93.6167 42.4343C93.802 42.3635 93.97 42.4773 93.97 42.6897V45.1468C93.97 45.4138 93.8727 45.5589 93.6781 45.6355C92.8466 46.0278 90.6948 46.5164 89.1151 46.5164H88.8441C85.3581 46.5164 82.582 44.4539 82.582 40.2569V38.8026C82.582 34.7205 85.3801 32.3979 88.7062 32.3979" fill="#227247"/><path d="M107.164 32.7461C107.375 32.7461 107.517 32.8877 107.517 33.1001V35.4748C107.517 35.6873 107.375 35.8289 107.164 35.8289H103.595V45.8142C103.595 46.0266 103.453 46.167 103.242 46.167H99.9692C99.7572 46.167 99.616 46.0266 99.616 45.8142V35.8289H96.0466C95.8347 35.8289 95.6934 35.6873 95.6934 35.4748V33.1001C95.6934 32.8877 95.8347 32.7461 96.0466 32.7461" fill="#227247"/><path d="M114.845 35.3031C113.591 35.3031 112.823 36.2549 112.749 37.9762H116.995C117.048 36.1852 116.405 35.3031 114.954 35.3031H114.845ZM115.091 32.3979C118.243 32.3979 120.702 34.3595 120.702 38.2663V39.694C120.702 40.0155 120.452 40.2673 120.131 40.2673H112.761L112.768 40.6968C112.761 42.5388 114.009 43.3896 115.662 43.3896H115.791C116.953 43.3896 118.251 42.9729 119.707 42.4343C119.892 42.3635 120.06 42.4773 120.06 42.6897V45.1468C120.06 45.4138 119.963 45.5589 119.768 45.6355C118.938 46.0278 116.785 46.5164 115.205 46.5164H114.936C111.448 46.5164 108.672 44.4539 108.672 40.2569V38.8026C108.672 34.7205 111.47 32.3979 114.797 32.3979" fill="#227247"/><path d="M128.847 35.5898C128.173 35.5898 127.391 35.8626 126.632 36.4348V42.4343C127.418 43.0344 128.236 43.3246 128.847 43.3246H128.966C130.265 43.3246 131.016 42.4123 131.016 40.6306V38.2826C131.016 36.5021 130.265 35.5898 128.966 35.5898H128.847ZM130.221 32.3979C133.445 32.3979 135.082 34.9735 135.082 38.1781V40.4496C135.082 44.3564 132.765 46.5153 129.804 46.5153H129.544C128.467 46.5153 127.443 46.1926 126.632 45.4637V50.2956C126.632 50.508 126.49 50.6496 126.278 50.6496H123.007C122.795 50.6496 122.653 50.508 122.653 50.2956V33.1002C122.653 32.8878 122.795 32.7462 123.007 32.7462H125.885C126.052 32.7462 126.172 32.8436 126.216 33.0119L126.38 33.9823C127.208 33.0769 128.459 32.3979 129.96 32.3979" fill="#227247"/><path d="M145.303 38.7414C145.303 36.9609 144.552 36.0475 143.253 36.0475H143.134C142.458 36.0475 141.683 36.3167 140.919 36.8948V40.631C140.919 42.4115 141.63 43.3249 142.973 43.3249H143.127C144.437 43.3249 145.303 42.4115 145.303 40.631V38.7414ZM144.508 32.8568C147.731 32.8568 149.369 35.4335 149.369 38.6369V40.4499C149.369 44.3568 146.498 46.5156 143.198 46.5156H142.902C139.567 46.5156 136.854 44.3568 136.854 40.4499V34.325C136.854 29.4699 139.136 27.0661 144.05 27.0661H144.179C146.222 27.0661 147.288 26.668 148.423 26.0854C148.609 25.9925 148.776 26.1283 148.776 26.3407V28.864C148.776 29.131 148.635 29.2726 148.397 29.3956C146.945 30.251 145.221 30.258 143.898 30.258H143.77C141.988 30.258 140.919 31.1065 140.919 33.0692V34.2031C141.764 33.4011 142.915 32.8568 144.247 32.8568" fill="#227247"/><path d="M163.158 32.7473C163.435 32.7473 163.615 32.9759 163.524 33.2545L159.079 46.7381C158.323 49.0687 157.063 50.9989 154.226 50.9989H154.021C152.956 50.9989 151.684 50.667 151.434 50.5567C151.278 50.5033 151.186 50.335 151.186 50.1621V47.7409C151.186 47.5459 151.354 47.4217 151.548 47.4751C152.318 47.7212 152.892 47.8732 153.523 47.8732H153.586C154.371 47.8732 154.77 47.5134 155.048 46.7207L155.239 46.167H154.719C154.562 46.167 154.434 46.0649 154.379 45.9093L150.229 33.2545C150.136 32.9759 150.317 32.7461 150.599 32.7461H153.906C154.062 32.7461 154.191 32.8494 154.244 33.0049L155.861 37.9854L156.847 42.844H156.905L157.891 37.9854L159.508 33.0049C159.561 32.8494 159.691 32.7461 159.847 32.7461" fill="#227247"/><path d="M171.197 35.5898C170.523 35.5898 169.741 35.8626 168.981 36.4348V42.4343C169.767 43.0344 170.585 43.3246 171.197 43.3246H171.316C172.614 43.3246 173.366 42.4123 173.366 40.6306V38.2826C173.366 36.5021 172.614 35.5898 171.316 35.5898H171.197ZM172.57 32.3979C175.794 32.3979 177.432 34.9735 177.432 38.1781V40.4496C177.432 44.3564 175.115 46.5153 172.153 46.5153H171.894C170.817 46.5153 169.793 46.1926 168.981 45.4637V50.2956C168.981 50.508 168.84 50.6496 168.628 50.6496H165.356C165.144 50.6496 165.003 50.508 165.003 50.2956V33.1002C165.003 32.8878 165.144 32.7462 165.356 32.7462H168.234C168.402 32.7462 168.521 32.8436 168.565 33.0119L168.73 33.9823C169.558 33.0769 170.809 32.3979 172.31 32.3979" fill="#227247"/><path d="M188.374 32.7461C188.586 32.7461 188.727 32.8877 188.727 33.1001V35.4748C188.727 35.6873 188.586 35.8277 188.374 35.8277H183.338V45.813C183.338 46.0254 183.197 46.167 182.986 46.167H179.713C179.501 46.167 179.361 46.0254 179.361 45.813V33.1001C179.361 32.8877 179.501 32.7461 179.713 32.7461" fill="#227247"/><path d="M195.663 40.2813C194.117 40.3056 193.448 40.9162 193.448 41.912V42.0014C193.448 42.88 194.06 43.4778 194.983 43.4778H195.113C195.76 43.4778 196.335 43.2062 197.022 42.598V40.2592L195.663 40.2813ZM195.767 32.3979C198.586 32.3979 200.955 33.4669 201 37.5049V45.8131C201 46.0255 200.859 46.1671 200.647 46.1671H197.77C197.601 46.1671 197.481 46.0696 197.437 45.9013L197.223 44.7371C196.428 45.5183 195.027 46.5164 193.386 46.5164H193.247C190.705 46.5164 189.446 44.693 189.446 42.7001V42.4169C189.446 39.7717 191.164 38.3557 195.122 38.0679L197.018 37.9355L197.011 37.6616C197.022 35.9984 196.342 35.5237 194.843 35.5237H194.779C193.618 35.5237 192.301 35.9403 190.845 36.3477C190.66 36.3965 190.492 36.3048 190.492 36.0924V33.7002C190.492 33.4344 190.589 33.2661 190.784 33.2127C191.987 32.8413 193.786 32.3979 195.65 32.3979" fill="#227247"/></svg>