<svg width="102" height="102" viewBox="0 0 102 102" fill="none" xmlns="http://www.w3.org/2000/svg"><path d="M80.155 73.085L101.57 94.495L94.495 101.57L73.085 80.155C65.1187 86.5411 55.21 90.0145 45 90C20.16 90 0 69.84 0 45C0 20.16 20.16 0 45 0C69.84 0 90 20.16 90 45C90.0145 55.21 86.5411 65.1187 80.155 73.085ZM70.125 69.375C76.4706 62.8494 80.0143 54.1021 80 45C80 25.66 64.335 10 45 10C25.66 10 10 25.66 10 45C10 64.335 25.66 80 45 80C54.1021 80.0143 62.8494 76.4706 69.375 70.125L70.125 69.375V69.375Z" fill="#fff"/></svg>