<svg width="46" height="46" viewBox="0 0 46 46" fill="none" xmlns="http://www.w3.org/2000/svg"><path d="M23.0003 28.9896C23.7946 28.9896 24.5563 28.6741 25.118 28.1124C25.6796 27.5508 25.9951 26.7891 25.9951 25.9948V8.02604C25.9951 7.23177 25.6796 6.47004 25.118 5.9084C24.5563 5.34677 23.7946 5.03125 23.0003 5.03125C22.2061 5.03125 21.4443 5.34677 20.8827 5.9084C20.3211 6.47004 20.0055 7.23177 20.0055 8.02604V25.9948C20.0055 26.7891 20.3211 27.5508 20.8827 28.1124C21.4443 28.6741 22.2061 28.9896 23.0003 28.9896ZM23.0003 40.9688C23.7407 40.9688 24.4645 40.7492 25.0801 40.3379C25.6957 39.9265 26.1755 39.3419 26.4589 38.6578C26.7422 37.9738 26.8163 37.2211 26.6719 36.4949C26.5274 35.7688 26.1709 35.1018 25.6474 34.5782C25.1238 34.0547 24.4568 33.6981 23.7306 33.5537C23.0045 33.4093 22.2518 33.4834 21.5678 33.7667C20.8837 34.0501 20.2991 34.5299 19.8877 35.1455C19.4764 35.7611 19.2568 36.4849 19.2568 37.2253C19.2568 38.2181 19.6512 39.1703 20.3533 39.8723C21.0553 40.5744 22.0075 40.9688 23.0003 40.9688V40.9688Z" fill="#121418"/></svg>