<svg width="62" height="62" viewBox="0 0 62 62" fill="none" xmlns="http://www.w3.org/2000/svg"><path d="M30.9997 18.0833C36.4808 18.0833 41.7375 20.2607 45.6132 24.1364C49.489 28.0122 51.6663 33.2688 51.6663 38.75C51.6663 44.2311 49.489 49.4878 45.6132 53.3635C41.7375 57.2393 36.4808 59.4166 30.9997 59.4166C25.5185 59.4166 20.2619 57.2393 16.3861 53.3635C12.5104 49.4878 10.333 44.2311 10.333 38.75C10.333 33.2688 12.5104 28.0122 16.3861 24.1364C20.2619 20.2607 25.5185 18.0833 30.9997 18.0833ZM30.9997 27.125L27.5819 34.0483L19.943 35.1591L25.4713 40.5454L24.1668 48.1559L30.9997 44.5625L37.8326 48.1533L36.528 40.5454L42.0563 35.1566L34.4174 34.0457L30.9997 27.125ZM33.583 5.16406L46.4997 5.16665V12.9166L42.9786 15.8565C40.0567 14.3235 36.8666 13.3683 33.583 13.0432V5.16665V5.16406ZM28.4163 5.16406V13.0432C25.1338 13.3678 21.9446 14.3221 19.0233 15.8539L15.4997 12.9166V5.16665L28.4163 5.16406Z" fill="#00BE4C"/></svg>