<svg width="62" height="62" viewBox="0 0 62 62" fill="none" xmlns="http://www.w3.org/2000/svg"><path d="M51.6668 51.6666C51.6668 52.3518 51.3947 53.0088 50.9102 53.4933C50.4257 53.9778 49.7686 54.25 49.0835 54.25H12.9168C12.2317 54.25 11.5746 53.9778 11.0901 53.4933C10.6057 53.0088 10.3335 52.3518 10.3335 51.6666V28.4166H2.5835L29.2616 4.16429C29.7372 3.73152 30.3571 3.4917 31.0002 3.4917C31.6432 3.4917 32.2631 3.73152 32.7387 4.16429L59.4168 28.4166H51.6668V51.6666ZM31.0002 43.9166L39.6776 35.2392C40.2173 34.6995 40.6455 34.0587 40.9376 33.3535C41.2297 32.6483 41.38 31.8924 41.38 31.1291C41.38 30.3658 41.2297 29.61 40.9376 28.9048C40.6455 28.1996 40.2173 27.5588 39.6776 27.019C39.1378 26.4793 38.4971 26.0511 37.7919 25.759C37.0866 25.4669 36.3308 25.3166 35.5675 25.3166C34.8042 25.3166 34.0483 25.4669 33.3431 25.759C32.6379 26.0511 31.9972 26.4793 31.4574 27.019L31.0002 27.4763L30.5429 27.019C30.0032 26.4793 29.3624 26.0511 28.6572 25.759C27.952 25.4669 27.1961 25.3166 26.4328 25.3166C25.6695 25.3166 24.9137 25.4669 24.2085 25.759C23.5033 26.0511 22.8625 26.4793 22.3227 27.019C21.783 27.5588 21.3549 28.1996 21.0627 28.9048C20.7706 29.61 20.6203 30.3658 20.6203 31.1291C20.6203 31.8924 20.7706 32.6483 21.0627 33.3535C21.3549 34.0587 21.783 34.6995 22.3227 35.2392L31.0002 43.9166Z" fill="#00BE4C"/></svg>