<svg width="62" height="62" viewBox="0 0 62 62" fill="none" xmlns="http://www.w3.org/2000/svg"><path d="M44.8545 28.5329C48.4815 24.9343 54.3611 24.9343 57.9881 28.5329C61.6151 32.134 61.6151 37.9724 57.9881 41.5709L43.9167 55.5416L29.8453 41.5709C26.2183 37.9724 26.2183 32.134 29.8453 28.5329C33.4723 24.9343 39.352 24.9343 42.979 28.5329L43.9167 29.4629L44.8545 28.5329ZM49.7111 12.2889C52.1395 14.7249 53.5939 17.7604 54.0744 20.912C50.6308 20.2714 46.9986 20.8862 43.9167 22.7539C38.3625 19.3879 31.0155 20.0931 26.2054 24.8671C20.7003 30.3309 20.5479 39.1142 25.7455 44.7614L26.2054 45.2393L32.4596 51.4496L28.4167 55.5029L6.51005 33.5652C1.0773 27.4789 1.28138 18.1324 7.1223 12.2889C12.9735 6.4402 22.333 6.24386 28.4193 11.6999C34.4875 6.25161 43.865 6.43245 49.7111 12.2889Z" fill="#00BE4C"/></svg>