<svg width="62" height="62" viewBox="0 0 62 62" fill="none" xmlns="http://www.w3.org/2000/svg"><path d="M9.77275 7.30066L31 2.5835L52.2272 7.30066C52.8009 7.42819 53.3139 7.74749 53.6817 8.20588C54.0494 8.66426 54.2499 9.23433 54.25 9.822V35.6217C54.2498 38.1734 53.6197 40.6855 52.4155 42.9352C51.2114 45.1848 49.4705 47.1024 47.3473 48.5177L31 59.4168L14.6527 48.5177C12.5299 47.1027 10.7892 45.1855 9.58507 42.9363C8.38094 40.6872 7.75061 38.1755 7.75 35.6243V9.822C7.7501 9.23433 7.95056 8.66426 8.31831 8.20588C8.68605 7.74749 9.19909 7.42819 9.77275 7.30066ZM31 28.4168C32.7129 28.4168 34.3556 27.7364 35.5667 26.5252C36.7779 25.3141 37.4583 23.6714 37.4583 21.9585C37.4583 20.2456 36.7779 18.6029 35.5667 17.3918C34.3556 16.1806 32.7129 15.5002 31 15.5002C29.2871 15.5002 27.6444 16.1806 26.4333 17.3918C25.2221 18.6029 24.5417 20.2456 24.5417 21.9585C24.5417 23.6714 25.2221 25.3141 26.4333 26.5252C27.6444 27.7364 29.2871 28.4168 31 28.4168ZM19.4447 41.3335H42.5552C42.2421 38.4877 40.8898 35.8575 38.7575 33.947C36.6253 32.0365 33.863 30.98 31 30.98C28.137 30.98 25.3747 32.0365 23.2425 33.947C21.1102 35.8575 19.7579 38.4877 19.4447 41.3335Z" fill="#00BE4C"/></svg>