<svg width="62" height="62" viewBox="0 0 62 62" fill="none" xmlns="http://www.w3.org/2000/svg"><path d="M10.3333 7.75H51.6667C52.3518 7.75 53.0089 8.02217 53.4934 8.50664C53.9778 8.99111 54.25 9.64819 54.25 10.3333V51.6667C54.25 52.3518 53.9778 53.0089 53.4934 53.4934C53.0089 53.9778 52.3518 54.25 51.6667 54.25H10.3333C9.64819 54.25 8.99111 53.9778 8.50664 53.4934C8.02217 53.0089 7.75 52.3518 7.75 51.6667V10.3333C7.75 9.64819 8.02217 8.99111 8.50664 8.50664C8.99111 8.02217 9.64819 7.75 10.3333 7.75ZM28.4244 41.3333L46.6886 23.0666L43.0358 19.4137L28.4244 34.0277L21.1162 26.7194L17.4633 30.3723L28.4244 41.3333Z" fill="#00BE4C"/></svg>