<svg width="216" height="216" viewBox="0 0 216 216" fill="none" xmlns="http://www.w3.org/2000/svg"><path d="M203.111 105.979C199.958 105.979 196.934 107.231 194.704 109.461C192.475 111.691 191.222 114.715 191.222 117.868V184.089C191.222 185.981 190.471 187.795 189.133 189.133C187.795 190.471 185.981 191.222 184.089 191.222H31.9111C30.0192 191.222 28.2048 190.471 26.8671 189.133C25.5293 187.795 24.7778 185.981 24.7778 184.089V31.9111C24.7778 30.0192 25.5293 28.2048 26.8671 26.8671C28.2048 25.5293 30.0192 24.7778 31.9111 24.7778H145.688C148.841 24.7778 151.865 23.5252 154.094 21.2956C156.324 19.066 157.577 16.042 157.577 12.8889C157.577 9.73576 156.324 6.71177 154.094 4.48217C151.865 2.25258 148.841 1 145.688 1H31.9111C23.7226 1.03131 15.8784 4.29807 10.0883 10.0883C4.29807 15.8784 1.03131 23.7226 1 31.9111V184.089C1.03131 192.277 4.29807 200.122 10.0883 205.912C15.8784 211.702 23.7226 214.969 31.9111 215H184.089C192.277 214.969 200.122 211.702 205.912 205.912C211.702 200.122 214.969 192.277 215 184.089V117.868C215 114.715 213.747 111.691 211.518 109.461C209.288 107.231 206.264 105.979 203.111 105.979Z" fill="#00BE4C"/><path d="M92.7822 96.111C90.5512 94.1046 87.644 93.016 84.6439 93.0635C81.6438 93.111 78.7726 94.2912 76.6063 96.3673C74.4399 98.4433 73.1387 101.262 72.9636 104.257C72.7885 107.253 73.7525 110.203 75.6622 112.518L102.056 140.219C103.161 141.378 104.488 142.302 105.959 142.935C107.43 143.569 109.014 143.898 110.616 143.904C112.209 143.914 113.787 143.603 115.258 142.99C116.728 142.377 118.06 141.475 119.176 140.338L199.782 57.1154C200.875 55.9913 201.736 54.6629 202.315 53.2062C202.895 51.7494 203.182 50.1927 203.16 48.6251C203.138 47.0574 202.807 45.5095 202.187 44.0696C201.566 42.6297 200.669 41.3261 199.544 40.2332C198.42 39.1403 197.092 38.2795 195.635 37.7C194.178 37.1205 192.622 36.8336 191.054 36.8557C189.486 36.8778 187.938 37.2084 186.499 37.8287C185.059 38.449 183.755 39.3469 182.662 40.471L110.734 114.895L92.7822 96.111Z" fill="#00BE4C"/></svg>