<svg width="93" height="122" viewBox="0 0 93 122" fill="none" xmlns="http://www.w3.org/2000/svg"><path d="M91.008 64.3281L6.216 120.856C5.61365 121.257 4.91384 121.487 4.19113 121.521C3.46842 121.556 2.74986 121.394 2.11199 121.052C1.47412 120.711 0.940829 120.203 0.568909 119.582C0.196988 118.961 0.000373763 118.252 0 117.528V4.47206C0.000373763 3.74852 0.196988 3.03863 0.568909 2.418C0.940829 1.79737 1.47412 1.28924 2.11199 0.947731C2.74986 0.60622 3.46842 0.444118 4.19113 0.478691C4.91384 0.513264 5.61365 0.743218 6.216 1.14406L91.008 57.6721C91.5558 58.0373 92.005 58.5322 92.3157 59.1128C92.6263 59.6933 92.7889 60.3416 92.7889 61.0001C92.7889 61.6585 92.6263 62.3068 92.3157 62.8873C92.005 63.4679 91.5558 63.9628 91.008 64.3281Z" fill="#fff"/></svg>