<svg width="50" height="50" viewBox="0 0 50 50" fill="none" xmlns="http://www.w3.org/2000/svg"><path d="M11.1047 6.81456C12.4048 6.35076 13.8098 6.26551 15.1564 6.56873C16.5031 6.87195 17.736 7.55118 18.7118 8.52746C19.6877 9.50373 20.3663 10.7369 20.669 12.0837C20.9716 13.4305 20.8857 14.8355 20.4213 16.1354L43.0151 38.7291L38.5942 43.1479L16.0005 20.5562C14.7004 21.02 13.2953 21.1053 11.9487 20.8021C10.6021 20.4988 9.36916 19.8196 8.39332 18.8433C7.41748 17.8671 6.7388 16.6338 6.43618 15.2871C6.13356 13.9403 6.21943 12.5353 6.68382 11.2354L11.3422 15.8958C11.6304 16.1943 11.9753 16.4323 12.3565 16.5961C12.7378 16.7599 13.1478 16.8461 13.5628 16.8497C13.9777 16.8533 14.3892 16.7743 14.7733 16.6171C15.1573 16.46 15.5062 16.228 15.7996 15.9345C16.0931 15.6411 16.3251 15.2922 16.4822 14.9082C16.6393 14.5241 16.7184 14.1126 16.7148 13.6977C16.7112 13.2827 16.625 12.8727 16.4612 12.4914C16.2974 12.1102 16.0594 11.7653 15.7609 11.4771L11.1026 6.81248L11.1047 6.81456ZM32.7026 10.7396L39.3317 7.05623L42.2776 10.0021L38.5942 16.6312L34.9109 17.3687L30.4942 21.7875L27.5463 18.8416L31.9651 14.4229L32.7026 10.7396V10.7396ZM17.9713 26.9437L22.3901 31.3646L12.0776 41.6771C11.5089 42.2404 10.7457 42.5641 9.94545 42.5813C9.14516 42.5985 8.36879 42.3079 7.77643 41.7695C7.18407 41.2311 6.8209 40.486 6.7618 39.6877C6.70271 38.8894 6.9522 38.0989 7.45882 37.4791L7.6609 37.2562L17.9734 26.9437H17.9713Z" fill="#00BE4C"/></svg>