<svg width="50" height="50" viewBox="0 0 50 50" fill="none" xmlns="http://www.w3.org/2000/svg"><path d="M11.7421 26.4733L15.5504 30.2837L18.5004 27.3337L14.6879 23.5274L17.6337 20.5816L21.4442 24.3899L24.39 21.4441L20.5837 17.6337L23.5296 14.6878L27.3337 18.5003L30.2817 15.5524L26.4712 11.7441L32.365 5.85242C32.7557 5.46185 33.2855 5.24245 33.8379 5.24245C34.3903 5.24245 34.9201 5.46185 35.3108 5.85242L44.1483 14.6899C44.5389 15.0806 44.7583 15.6104 44.7583 16.1628C44.7583 16.7153 44.5389 17.2451 44.1483 17.6358L17.6337 44.1503C17.2431 44.5409 16.7132 44.7603 16.1608 44.7603C15.6084 44.7603 15.0786 44.5409 14.6879 44.1503L5.8504 35.3128C5.45984 34.9222 5.24043 34.3923 5.24043 33.8399C5.24043 33.2875 5.45984 32.7577 5.8504 32.367L11.7421 26.4733V26.4733ZM29.4192 38.2566L38.2587 29.4191L43.7504 34.9108V43.7503H34.9129L29.4192 38.2566ZM11.7421 20.5795L5.84832 14.6878C5.65462 14.4944 5.50095 14.2646 5.39611 14.0117C5.29127 13.7588 5.2373 13.4877 5.2373 13.2139C5.2373 12.9401 5.29127 12.669 5.39611 12.4161C5.50095 12.1632 5.65462 11.9334 5.84832 11.7399L11.7421 5.84825C12.1328 5.45769 12.6626 5.23828 13.215 5.23828C13.7674 5.23828 14.2972 5.45769 14.6879 5.84825L20.5837 11.7399L11.7421 20.5795Z" fill="#00BE4C"/></svg>