<svg width="50" height="50" viewBox="0 0 50 50" fill="none" xmlns="http://www.w3.org/2000/svg"><path d="M35.4163 19.1663L46.2768 11.5622C46.4329 11.4527 46.6161 11.3882 46.8064 11.3757C46.9967 11.3632 47.1868 11.4032 47.356 11.4913C47.5251 11.5794 47.6668 11.7123 47.7656 11.8754C47.8644 12.0385 47.9166 12.2256 47.9163 12.4163V37.583C47.9166 37.7737 47.8644 37.9608 47.7656 38.1239C47.6668 38.2871 47.5251 38.4199 47.356 38.508C47.1868 38.5961 46.9967 38.6361 46.8064 38.6236C46.6161 38.6111 46.4329 38.5466 46.2768 38.4372L35.4163 30.833V39.583C35.4163 40.1355 35.1968 40.6654 34.8061 41.0561C34.4154 41.4468 33.8855 41.6663 33.333 41.6663H4.16634C3.61381 41.6663 3.0839 41.4468 2.6932 41.0561C2.3025 40.6654 2.08301 40.1355 2.08301 39.583V10.4163C2.08301 9.86381 2.3025 9.3339 2.6932 8.9432C3.0839 8.5525 3.61381 8.33301 4.16634 8.33301H33.333C33.8855 8.33301 34.4154 8.5525 34.8061 8.9432C35.1968 9.3339 35.4163 9.86381 35.4163 10.4163V19.1663ZM10.4163 16.6663V20.833H14.583V16.6663H10.4163Z" fill="#00BE4C"/></svg>