<svg width="50" height="50" viewBox="0 0 50 50" fill="none" xmlns="http://www.w3.org/2000/svg"><path d="M12.5003 4.16699H37.5003C38.0529 4.16699 38.5828 4.38649 38.9735 4.77719C39.3642 5.16789 39.5837 5.69779 39.5837 6.25033V43.7503C39.5837 44.3029 39.3642 44.8328 38.9735 45.2235C38.5828 45.6142 38.0529 45.8337 37.5003 45.8337H12.5003C11.9478 45.8337 11.4179 45.6142 11.0272 45.2235C10.6365 44.8328 10.417 44.3029 10.417 43.7503V6.25033C10.417 5.69779 10.6365 5.16789 11.0272 4.77719C11.4179 4.38649 11.9478 4.16699 12.5003 4.16699ZM25.0003 35.417C24.4478 35.417 23.9179 35.6365 23.5272 36.0272C23.1365 36.4179 22.917 36.9478 22.917 37.5003C22.917 38.0529 23.1365 38.5828 23.5272 38.9735C23.9179 39.3642 24.4478 39.5837 25.0003 39.5837C25.5529 39.5837 26.0828 39.3642 26.4735 38.9735C26.8642 38.5828 27.0837 38.0529 27.0837 37.5003C27.0837 36.9478 26.8642 36.4179 26.4735 36.0272C26.0828 35.6365 25.5529 35.417 25.0003 35.417Z" fill="#00BE4C"/></svg>