<svg width="50" height="50" viewBox="0 0 50 50" fill="none" xmlns="http://www.w3.org/2000/svg"><path d="M43.7497 16.667C44.8547 16.667 45.9145 17.106 46.696 17.8874C47.4774 18.6688 47.9163 19.7286 47.9163 20.8337V29.167C47.9163 30.2721 47.4774 31.3319 46.696 32.1133C45.9145 32.8947 44.8547 33.3337 43.7497 33.3337H41.5372C41.0293 37.3614 39.069 41.0653 36.0241 43.7504C32.9793 46.4354 29.0593 47.917 24.9997 47.917V43.7504C28.3149 43.7504 31.4943 42.4334 33.8385 40.0892C36.1827 37.745 37.4997 34.5656 37.4997 31.2504V18.7504C37.4997 15.4352 36.1827 12.2557 33.8385 9.91153C31.4943 7.56732 28.3149 6.25036 24.9997 6.25036C21.6845 6.25036 18.505 7.56732 16.1608 9.91153C13.8166 12.2557 12.4997 15.4352 12.4997 18.7504V33.3337H6.24967C5.14461 33.3337 4.0848 32.8947 3.3034 32.1133C2.52199 31.3319 2.08301 30.2721 2.08301 29.167V20.8337C2.08301 19.7286 2.52199 18.6688 3.3034 17.8874C4.0848 17.106 5.14461 16.667 6.24967 16.667H8.46217C8.97057 12.6397 10.9311 8.93635 13.9759 6.25177C17.0206 3.56719 20.9404 2.08594 24.9997 2.08594C29.0589 2.08594 32.9787 3.56719 36.0235 6.25177C39.0683 8.93635 41.0288 12.6397 41.5372 16.667H43.7497ZM16.1663 32.8858L18.3747 29.3524C20.3602 30.5963 22.6567 31.2541 24.9997 31.2504C27.3427 31.2541 29.6391 30.5963 31.6247 29.3524L33.833 32.8858C31.1856 34.5444 28.1237 35.4218 24.9997 35.417C21.8756 35.4218 18.8137 34.5444 16.1663 32.8858Z" fill="#00BE4C"/></svg>