<svg width="40" height="40" viewBox="0 0 40 40" fill="none" xmlns="http://www.w3.org/2000/svg"><circle cx="20" cy="20" r="20" fill="#CDCDCD"/><path d="M12.0999 18.7083C16.3949 16.8371 19.2589 15.6034 20.6919 15.0074C24.7834 13.3056 25.6335 13.01 26.1877 13.0001C26.3095 12.9981 26.582 13.0283 26.7586 13.1715C26.9076 13.2924 26.9486 13.4558 26.9683 13.5705C26.9879 13.6851 27.0123 13.9464 26.9929 14.1505C26.7712 16.4801 25.8118 22.1335 25.3237 24.7427C25.1172 25.8468 24.7105 26.217 24.3168 26.2532C23.4613 26.3319 22.8116 25.6878 21.9829 25.1446C20.6862 24.2946 19.9537 23.7654 18.695 22.936C17.2404 21.9774 18.1834 21.4506 19.0124 20.5896C19.2293 20.3643 22.999 16.9355 23.0719 16.6244C23.0811 16.5855 23.0895 16.4405 23.0034 16.3639C22.9172 16.2874 22.7901 16.3136 22.6983 16.3344C22.5683 16.3639 20.4968 17.7331 16.4839 20.4419C15.8959 20.8457 15.3633 21.0424 14.8862 21.0321C14.3601 21.0207 13.3482 20.7346 12.596 20.4901C11.6733 20.1902 10.94 20.0316 11.0039 19.5223C11.0371 19.257 11.4025 18.9856 12.0999 18.7083Z" fill="#fff"/></svg>