<svg width="56" height="56" viewBox="0 0 56 56" fill="none" xmlns="http://www.w3.org/2000/svg"><path d="M8.827 6.59398L28 2.33331L47.173 6.59398C47.6911 6.70916 48.1545 6.99757 48.4867 7.41159C48.8188 7.82562 48.9999 8.34052 49 8.87131V32.1743C48.9998 34.479 48.4307 36.7481 47.3431 38.78C46.2555 40.8119 44.683 42.544 42.7653 43.8223L28 53.6666L13.2347 43.8223C11.3173 42.5442 9.74507 40.8125 8.65748 38.781C7.56988 36.7495 7.00055 34.481 7 32.1766V8.87131C7.00009 8.34052 7.18116 7.82562 7.51331 7.41159C7.84546 6.99757 8.30885 6.70916 8.827 6.59398V6.59398ZM28 31.5L34.8577 35.105L33.5487 27.4703L39.095 22.0616L31.4277 20.9463L28 14L24.57 20.9463L16.905 22.0616L22.4513 27.4703L21.1447 35.105L28 31.5Z" fill="#00BE4C"/></svg>