<svg width="56" height="56" viewBox="0 0 56 56" fill="none" xmlns="http://www.w3.org/2000/svg"><path d="M14.8913 13.9253C18.6101 10.9458 23.2349 9.32571 28 9.33331C32.9583 9.33331 37.5153 11.0506 41.1087 13.9253L44.499 10.535L47.7983 13.8343L44.408 17.2246C46.876 20.3143 48.4215 24.038 48.8666 27.9673C49.3117 31.8965 48.6383 35.8716 46.924 39.435C45.2097 42.9985 42.5241 46.0055 39.1762 48.11C35.8284 50.2145 31.9544 51.331 28 51.331C24.0456 51.331 20.1716 50.2145 16.8238 48.11C13.4759 46.0055 10.7903 42.9985 9.07603 39.435C7.36172 35.8716 6.68837 31.8965 7.13347 27.9673C7.57857 24.038 9.12404 20.3143 11.592 17.2246L8.20168 13.8366L11.501 10.5373L14.8913 13.9276V13.9253ZM30.3333 28V17.4883L18.6667 32.6666H25.6667V43.1666L37.3333 28H30.3333ZM18.6667 2.33331H37.3333V6.99998H18.6667V2.33331Z" fill="#00BE4C"/></svg>