<svg width="56" height="56" viewBox="0 0 56 56" fill="none" xmlns="http://www.w3.org/2000/svg"><path d="M28.0002 4.66699C32.3321 4.66699 36.4865 6.38782 39.5496 9.45091C42.6127 12.514 44.3335 16.6685 44.3335 21.0003H46.8395C47.4272 21.0003 47.9933 21.2222 48.4246 21.6214C48.8559 22.0207 49.1206 22.568 49.1658 23.154L51.1398 48.8207C51.1875 49.4376 50.9881 50.0483 50.5855 50.5182C50.1829 50.9882 49.6102 51.279 48.9932 51.3267L48.8135 51.3337H7.18685C6.56801 51.3337 5.97452 51.0878 5.53693 50.6502C5.09935 50.2127 4.85352 49.6192 4.85352 49.0003L4.86052 48.8207L6.83452 23.154C6.87977 22.568 7.14449 22.0207 7.57577 21.6214C8.00705 21.2222 8.57312 21.0003 9.16085 21.0003H11.6668C11.6668 16.6685 13.3877 12.514 16.4508 9.45091C19.5139 6.38782 23.6683 4.66699 28.0002 4.66699V4.66699ZM32.6668 30.3337H23.3335V35.0003H32.6668V30.3337ZM28.0002 9.33366C24.9938 9.33383 22.1035 10.4946 19.932 12.5739C17.7606 14.6531 16.4757 17.4904 16.3452 20.494L16.3335 21.0003H39.6668C39.6667 17.9939 38.5059 15.1036 36.4266 12.9322C34.3474 10.7607 31.5101 9.4758 28.5065 9.34533L28.0002 9.33366Z" fill="#00BE4C"/></svg>