<svg width="66" height="79" viewBox="0 0 66 79" fill="none" xmlns="http://www.w3.org/2000/svg"><path d="M55.8044 55.221L33 78.0253L10.1957 55.221C5.68548 50.7107 2.614 44.9643 1.36966 38.7085C0.125319 32.4526 0.764 25.9682 3.20494 20.0753C5.64588 14.1824 9.77944 9.14568 15.0829 5.60202C20.3864 2.05837 26.6216 0.166946 33 0.166946C39.3784 0.166946 45.6136 2.05837 50.9171 5.60202C56.2206 9.14568 60.3542 14.1824 62.7951 20.0753C65.236 25.9682 65.8747 32.4526 64.6304 38.7085C63.386 44.9643 60.3146 50.7107 55.8044 55.221V55.221ZM33 46.75C36.8015 46.75 40.4472 45.2399 43.1352 42.5519C45.8232 39.8638 47.3333 36.2181 47.3333 32.4167C47.3333 28.6152 45.8232 24.9695 43.1352 22.2815C40.4472 19.5934 36.8015 18.0833 33 18.0833C29.1986 18.0833 25.5528 19.5934 22.8648 22.2815C20.1768 24.9695 18.6667 28.6152 18.6667 32.4167C18.6667 36.2181 20.1768 39.8638 22.8648 42.5519C25.5528 45.2399 29.1986 46.75 33 46.75V46.75ZM33 39.5833C31.0993 39.5833 29.2764 38.8283 27.9324 37.4843C26.5884 36.1402 25.8333 34.3174 25.8333 32.4167C25.8333 30.5159 26.5884 28.6931 27.9324 27.3491C29.2764 26.0051 31.0993 25.25 33 25.25C34.9007 25.25 36.7236 26.0051 38.0676 27.3491C39.4116 28.6931 40.1667 30.5159 40.1667 32.4167C40.1667 34.3174 39.4116 36.1402 38.0676 37.4843C36.7236 38.8283 34.9007 39.5833 33 39.5833Z" fill="#00BE4C"/></svg>